<svg width="21" height="20" viewBox="0 0 21 20" fill="none" xmlns="http://www.w3.org/2000/svg">
<path fill-rule="evenodd" clip-rule="evenodd" d="M11.4856 0.144287C11.5913 0.144287 11.8173 0.182749 11.9904 0.235633C12.1635 0.288518 12.4087 0.403903 12.5385 0.490441C12.6683 0.572172 12.8317 0.72121 12.9038 0.812556C12.976 0.903902 13.0817 1.06736 13.1346 1.17313C13.1875 1.2789 13.2548 1.50486 13.2837 1.67794C13.3269 1.9039 13.3365 4.4039 13.3125 19.2981L13.2115 19.4664C13.1538 19.5577 13.0288 19.6827 12.9327 19.7452C12.7644 19.8462 12.7212 19.851 10.2596 19.851L10.2356 14.5818L10.0577 14.2212C9.95192 14.0049 9.80289 13.7933 9.67308 13.6779C9.5625 13.5722 9.32692 13.4183 8.84135 13.1924L7.11058 13.1779C6 13.1683 5.27885 13.1779 5.09135 13.2116C4.93269 13.2404 4.6875 13.327 4.54327 13.3991C4.40385 13.4712 4.19231 13.6299 4.07692 13.7549C3.96154 13.8847 3.80769 14.1106 3.60096 14.5385L3.57692 19.851H3.24038C3.02885 19.851 2.77885 19.8126 2.58173 19.7501C2.39904 19.6924 2.125 19.577 1.96635 19.4952C1.80288 19.4135 1.53365 19.202 1.34135 19.0097C1.15385 18.8222 0.9375 18.5481 0.850962 18.3847C0.769231 18.226 0.658654 17.9424 0.600962 17.7597C0.504808 17.4279 0.5 17.3654 0.5 11.1972C0.5 5.06736 0.5 4.9664 0.596154 4.5866C0.653846 4.37506 0.764423 4.07217 0.850962 3.91352C0.932692 3.75486 1.15385 3.47602 1.34135 3.28852C1.53846 3.08659 1.80288 2.88467 1.99038 2.78371C2.23077 2.65871 3.33173 2.33659 6.79808 1.38467C9.26923 0.706787 11.3798 0.149095 11.4856 0.144287ZM4.73077 6.38948C4.64904 6.50967 4.61538 6.62025 4.61538 6.77409C4.61538 6.90871 4.65385 7.05294 4.71635 7.15871C4.77404 7.25006 4.90865 7.37506 5.01442 7.43275C5.21154 7.54333 5.22596 7.54333 6.96154 7.5289C8.65385 7.51929 8.72115 7.51448 8.85096 7.41832C8.92308 7.36544 9.03365 7.24525 9.09615 7.1539C9.16827 7.04332 9.20673 6.91833 9.20673 6.77409C9.20673 6.62986 9.16827 6.50486 9.09615 6.39429C9.03365 6.30294 8.92308 6.18275 8.85096 6.12986C8.72115 6.03371 8.65385 6.0289 6.95192 6.01448C5.19231 6.00486 5.1875 6.00486 5.01923 6.11063C4.92788 6.17313 4.79808 6.29813 4.73077 6.38948ZM4.73077 9.4664C4.64904 9.58659 4.61538 9.69717 4.61538 9.85102C4.61538 9.98563 4.65385 10.1299 4.71635 10.2356C4.77404 10.327 4.90865 10.452 5.01442 10.5097C5.21154 10.6202 5.22596 10.6202 6.96154 10.6058C8.65385 10.5962 8.72115 10.5914 8.85096 10.4952C8.92308 10.4424 9.03365 10.3222 9.09615 10.2308C9.16827 10.1202 9.20673 9.99525 9.20673 9.85102C9.20673 9.70679 9.16827 9.58179 9.09615 9.47121C9.03365 9.37986 8.92308 9.25967 8.85096 9.20679C8.72115 9.11063 8.65385 9.10583 6.95192 9.0914C5.19231 9.08179 5.1875 9.08179 5.01923 9.18756C4.92788 9.25006 4.79808 9.37506 4.73077 9.4664ZM14.875 5.90871L15.0337 5.97602C15.1154 6.00967 16.0096 6.38948 17.0144 6.82217C18.0192 7.25006 18.9615 7.66833 19.1058 7.75006C19.25 7.83179 19.5096 8.03852 19.6827 8.21159C19.8558 8.38948 20.0625 8.65871 20.1442 8.81736C20.226 8.97602 20.3413 9.25006 20.399 9.42794C20.5 9.75006 20.5 9.81256 20.5 13.5626C20.5 17.2741 20.5 17.3847 20.399 17.7356C20.3462 17.9327 20.2308 18.226 20.149 18.3847C20.0625 18.5433 19.8462 18.8222 19.6587 19.0097C19.4663 19.202 19.1971 19.4135 19.0337 19.4952C18.875 19.577 18.601 19.6924 18.4231 19.7501C18.1154 19.8462 17.9952 19.851 16.4135 19.851C14.8317 19.851 14.7308 19.8462 14.7548 19.7645C14.7692 19.7212 14.7981 19.5529 14.8269 19.3943C14.8558 19.2116 14.875 16.6491 14.875 12.5049V5.90871ZM16.0192 11.4904C15.9663 11.5529 15.9135 11.7068 15.899 11.827C15.8798 11.9904 15.8942 12.0914 15.976 12.2452C16.0337 12.3654 16.149 12.4952 16.2548 12.5577C16.4231 12.6587 16.4952 12.6683 17.1587 12.6683C17.7981 12.6683 17.899 12.6539 18.0481 12.5674C18.1394 12.5145 18.2644 12.3943 18.3269 12.3029C18.4183 12.1683 18.4375 12.0914 18.4231 11.8751C18.4135 11.7068 18.3654 11.5529 18.3029 11.4664C18.25 11.3847 18.125 11.2837 18.0288 11.2356C17.8894 11.1683 17.7212 11.1539 17.1442 11.1539C16.4808 11.1539 16.4183 11.1587 16.2692 11.2597C16.1827 11.3222 16.0673 11.4231 16.0192 11.4904ZM16.0192 14.5674C15.9663 14.6299 15.9135 14.7837 15.899 14.9039C15.8798 15.0674 15.8942 15.1683 15.976 15.3222C16.0337 15.4424 16.149 15.5722 16.2548 15.6347C16.4231 15.7356 16.4952 15.7452 17.1587 15.7452C17.7981 15.7452 17.899 15.7308 18.0481 15.6443C18.1394 15.5914 18.2644 15.4712 18.3269 15.3799C18.4183 15.2452 18.4375 15.1683 18.4231 14.952C18.4135 14.7837 18.3654 14.6299 18.3029 14.5433C18.25 14.4616 18.125 14.3606 18.0288 14.3126C17.8894 14.2452 17.7212 14.2308 17.1442 14.2308C16.4808 14.2308 16.4183 14.2356 16.2692 14.3366C16.1827 14.3991 16.0673 14.5001 16.0192 14.5674ZM6.92788 14.7116C8.46154 14.7116 8.53365 14.7116 8.625 14.8077C8.71635 14.8991 8.72115 14.9664 8.72115 19.8558H5.11538L5.10096 14.8606L5.21635 14.7837C5.3125 14.7212 5.55769 14.7068 6.92788 14.7116Z" fill="#FE524D"/>
</svg>
