<svg width="20" height="20" viewBox="0 0 20 20" fill="none" xmlns="http://www.w3.org/2000/svg">
<path fill-rule="evenodd" clip-rule="evenodd" d="M10.9856 0.144287C11.0913 0.144287 11.3173 0.182749 11.4904 0.235633C11.6635 0.288518 11.9087 0.403903 12.0385 0.490441C12.1683 0.572172 12.3317 0.72121 12.4038 0.812556C12.476 0.903902 12.5817 1.06736 12.6346 1.17313C12.6875 1.2789 12.7548 1.50486 12.7837 1.67794C12.8269 1.9039 12.8365 4.4039 12.8125 19.2981L12.7115 19.4664C12.6538 19.5577 12.5288 19.6827 12.4327 19.7452C12.2644 19.8462 12.2212 19.851 9.75962 19.851L9.73558 14.5818L9.55769 14.2212C9.45192 14.0049 9.30289 13.7933 9.17308 13.6779C9.0625 13.5722 8.82692 13.4183 8.34135 13.1924L6.61058 13.1779C5.5 13.1683 4.77885 13.1779 4.59135 13.2116C4.43269 13.2404 4.1875 13.327 4.04327 13.3991C3.90385 13.4712 3.69231 13.6299 3.57692 13.7549C3.46154 13.8847 3.30769 14.1106 3.10096 14.5385L3.07692 19.851H2.74038C2.52885 19.851 2.27885 19.8126 2.08173 19.7501C1.89904 19.6924 1.625 19.577 1.46635 19.4952C1.30288 19.4135 1.03365 19.202 0.841346 19.0097C0.653846 18.8222 0.4375 18.5481 0.350962 18.3847C0.269231 18.226 0.158654 17.9424 0.100962 17.7597C0.00480769 17.4279 0 17.3654 0 11.1972C0 5.06736 0 4.9664 0.0961538 4.5866C0.153846 4.37506 0.264423 4.07217 0.350962 3.91352C0.432692 3.75486 0.653846 3.47602 0.841346 3.28852C1.03846 3.08659 1.30288 2.88467 1.49038 2.78371C1.73077 2.65871 2.83173 2.33659 6.29808 1.38467C8.76923 0.706787 10.8798 0.149095 10.9856 0.144287ZM4.23077 6.38948C4.14904 6.50967 4.11538 6.62025 4.11538 6.77409C4.11538 6.90871 4.15385 7.05294 4.21635 7.15871C4.27404 7.25006 4.40865 7.37506 4.51442 7.43275C4.71154 7.54333 4.72596 7.54333 6.46154 7.5289C8.15385 7.51929 8.22115 7.51448 8.35096 7.41832C8.42308 7.36544 8.53365 7.24525 8.59615 7.1539C8.66827 7.04332 8.70673 6.91833 8.70673 6.77409C8.70673 6.62986 8.66827 6.50486 8.59615 6.39429C8.53365 6.30294 8.42308 6.18275 8.35096 6.12986C8.22115 6.03371 8.15385 6.0289 6.45192 6.01448C4.69231 6.00486 4.6875 6.00486 4.51923 6.11063C4.42788 6.17313 4.29808 6.29813 4.23077 6.38948ZM4.23077 9.4664C4.14904 9.58659 4.11538 9.69717 4.11538 9.85102C4.11538 9.98563 4.15385 10.1299 4.21635 10.2356C4.27404 10.327 4.40865 10.452 4.51442 10.5097C4.71154 10.6202 4.72596 10.6202 6.46154 10.6058C8.15385 10.5962 8.22115 10.5914 8.35096 10.4952C8.42308 10.4424 8.53365 10.3222 8.59615 10.2308C8.66827 10.1202 8.70673 9.99525 8.70673 9.85102C8.70673 9.70679 8.66827 9.58179 8.59615 9.47121C8.53365 9.37986 8.42308 9.25967 8.35096 9.20679C8.22115 9.11063 8.15385 9.10583 6.45192 9.0914C4.69231 9.08179 4.6875 9.08179 4.51923 9.18756C4.42788 9.25006 4.29808 9.37506 4.23077 9.4664ZM14.375 5.90871L14.5337 5.97602C14.6154 6.00967 15.5096 6.38948 16.5144 6.82217C17.5192 7.25006 18.4615 7.66833 18.6058 7.75006C18.75 7.83179 19.0096 8.03852 19.1827 8.21159C19.3558 8.38948 19.5625 8.65871 19.6442 8.81736C19.726 8.97602 19.8413 9.25006 19.899 9.42794C20 9.75006 20 9.81256 20 13.5626C20 17.2741 20 17.3847 19.899 17.7356C19.8462 17.9327 19.7308 18.226 19.649 18.3847C19.5625 18.5433 19.3462 18.8222 19.1587 19.0097C18.9663 19.202 18.6971 19.4135 18.5337 19.4952C18.375 19.577 18.101 19.6924 17.9231 19.7501C17.6154 19.8462 17.4952 19.851 15.9135 19.851C14.3317 19.851 14.2308 19.8462 14.2548 19.7645C14.2692 19.7212 14.2981 19.5529 14.3269 19.3943C14.3558 19.2116 14.375 16.6491 14.375 12.5049V5.90871ZM15.5192 11.4904C15.4663 11.5529 15.4135 11.7068 15.399 11.827C15.3798 11.9904 15.3942 12.0914 15.476 12.2452C15.5337 12.3654 15.649 12.4952 15.7548 12.5577C15.9231 12.6587 15.9952 12.6683 16.6587 12.6683C17.2981 12.6683 17.399 12.6539 17.5481 12.5674C17.6394 12.5145 17.7644 12.3943 17.8269 12.3029C17.9183 12.1683 17.9375 12.0914 17.9231 11.8751C17.9135 11.7068 17.8654 11.5529 17.8029 11.4664C17.75 11.3847 17.625 11.2837 17.5288 11.2356C17.3894 11.1683 17.2212 11.1539 16.6442 11.1539C15.9808 11.1539 15.9183 11.1587 15.7692 11.2597C15.6827 11.3222 15.5673 11.4231 15.5192 11.4904ZM15.5192 14.5674C15.4663 14.6299 15.4135 14.7837 15.399 14.9039C15.3798 15.0674 15.3942 15.1683 15.476 15.3222C15.5337 15.4424 15.649 15.5722 15.7548 15.6347C15.9231 15.7356 15.9952 15.7452 16.6587 15.7452C17.2981 15.7452 17.399 15.7308 17.5481 15.6443C17.6394 15.5914 17.7644 15.4712 17.8269 15.3799C17.9183 15.2452 17.9375 15.1683 17.9231 14.952C17.9135 14.7837 17.8654 14.6299 17.8029 14.5433C17.75 14.4616 17.625 14.3606 17.5288 14.3126C17.3894 14.2452 17.2212 14.2308 16.6442 14.2308C15.9808 14.2308 15.9183 14.2356 15.7692 14.3366C15.6827 14.3991 15.5673 14.5001 15.5192 14.5674ZM6.42788 14.7116C7.96154 14.7116 8.03365 14.7116 8.125 14.8077C8.21635 14.8991 8.22115 14.9664 8.22115 19.8558H4.61538L4.60096 14.8606L4.71635 14.7837C4.8125 14.7212 5.05769 14.7068 6.42788 14.7116Z" fill="#C8C8C8"/>
</svg>
