<svg width="20" height="22" viewBox="0 0 20 22" fill="none" xmlns="http://www.w3.org/2000/svg">
<path fill-rule="evenodd" clip-rule="evenodd" d="M1.36922 4.9144H7.22976L6.96796 5.13486C6.82099 5.25887 6.62809 5.438 6.54082 5.53904C6.45356 5.63549 6.31577 5.80543 6.1045 6.10856H3.84938C2.10867 6.10856 1.58508 6.12234 1.54375 6.16367C1.49782 6.2096 1.48863 7.25678 1.48863 15.2944H17.8394V10.7566C17.8394 7.16033 17.8302 6.2096 17.7842 6.16367C17.7383 6.11774 17.2285 6.10856 13.2235 6.10856L13.0857 5.91106C13.0122 5.80543 12.8744 5.63549 12.7872 5.53904C12.6999 5.438 12.507 5.25887 12.0982 4.9144H17.9542L18.2298 5.0476C18.3951 5.13027 18.5834 5.26806 18.7028 5.40585C18.8268 5.54363 18.9325 5.72735 18.9876 5.90188C19.0794 6.16827 19.0794 6.31065 19.0565 16.6033L18.9095 16.9157C18.7947 17.1453 18.6982 17.2693 18.5191 17.4117C18.3859 17.5127 18.1746 17.6276 18.046 17.6643C17.8577 17.7194 17.3387 17.7286 12.6035 17.7286V20.0251L13.9032 20.0388C15.1112 20.048 15.2122 20.0572 15.4051 20.1491C15.5199 20.1996 15.6899 20.3236 15.7817 20.42C15.8736 20.5211 15.9746 20.6543 15.9976 20.7232C16.0252 20.7967 16.0481 21.109 16.0481 22H3.27986V21.4259C3.27986 21.0493 3.30283 20.8013 3.33957 20.7002C3.37631 20.6221 3.49573 20.4706 3.60596 20.3741C3.71619 20.2731 3.88153 20.1582 3.9688 20.1215C4.10199 20.0618 4.36838 20.048 6.72454 20.0251V17.7286H4.12036C1.93874 17.7286 1.47485 17.7194 1.28195 17.6597C1.15794 17.623 0.951262 17.5127 0.82266 17.4163C0.657316 17.2923 0.547086 17.1545 0.271512 16.6125L0.257733 11.418C0.248548 6.37954 0.248548 6.2142 0.335813 5.92484C0.400113 5.71357 0.487378 5.562 0.625166 5.40585C0.744581 5.26806 0.93289 5.12568 1.09823 5.0476L1.36922 4.9144ZM9.664 0C9.68696 0 10.3162 0.702714 11.0602 1.56159C11.8089 2.42046 12.4151 3.13236 12.4151 3.14614C12.4151 3.15992 12.1442 3.1737 11.198 3.19207L11.1705 4.43215L10.9776 4.37244C10.8719 4.3357 10.6515 4.28058 10.4861 4.24384C10.3254 4.21169 9.95794 4.17954 9.67318 4.17954C9.37464 4.17954 9.00262 4.21169 8.80053 4.25303C8.60304 4.29436 8.37798 4.35407 8.14375 4.45511L8.12078 3.19207L7.51452 3.18288C7.17924 3.1737 6.90366 3.15992 6.89907 3.14614C6.89907 3.13236 7.50993 2.42046 8.25857 1.56159C9.00721 0.702714 9.64103 0 9.664 0ZM9.75126 4.92818C10.3116 4.94196 10.4126 4.95574 10.7847 5.08894C11.0143 5.17161 11.3128 5.3048 11.4506 5.38288C11.593 5.46555 11.8824 5.70898 12.0982 5.92484C12.3141 6.14071 12.5667 6.43925 12.654 6.59081C12.7412 6.74238 12.8561 6.97202 12.9066 7.09603C12.9617 7.22463 13.0398 7.50021 13.0857 7.71607C13.1454 8.00543 13.1592 8.23048 13.1408 8.58873C13.1225 8.89186 13.0765 9.1904 13.0122 9.39248C12.9571 9.57161 12.8423 9.84718 12.755 10.0125C12.6723 10.1779 12.507 10.4305 12.3922 10.5775C12.282 10.7198 12.0477 10.9541 11.8778 11.0965C11.7078 11.2342 11.4001 11.4317 11.198 11.5282C10.9959 11.6246 10.6974 11.7395 10.5321 11.7808C10.3713 11.8221 10.0682 11.8681 9.86609 11.8818C9.664 11.8956 9.34709 11.8818 9.15418 11.8543C8.96588 11.8221 8.66734 11.7486 8.48821 11.6843C8.31368 11.6246 8.02433 11.4868 7.84521 11.3812C7.67068 11.2802 7.37214 11.0367 7.17924 10.8438C6.99093 10.6509 6.77047 10.38 6.6878 10.2422C6.60512 10.1044 6.48571 9.85637 6.41682 9.69102C6.35251 9.52568 6.26984 9.25929 6.2331 9.09395C6.20095 8.9286 6.17339 8.62547 6.1688 8.41879C6.1688 8.20752 6.20095 7.87683 6.24229 7.68393C6.28362 7.48643 6.36629 7.20167 6.43059 7.0501C6.49489 6.89854 6.6235 6.65971 6.71076 6.52192C6.79803 6.38413 7.00011 6.13612 7.15168 5.97537C7.30784 5.81461 7.55585 5.59875 7.70742 5.4977C7.85899 5.39666 8.09782 5.25887 8.2356 5.19916C8.37798 5.13946 8.63519 5.0476 8.80972 5.00167C9.06692 4.93278 9.25523 4.919 9.75126 4.92818ZM9.26901 6.13152C9.21849 6.21879 9.20011 6.31983 9.21849 6.4071C9.23226 6.48518 9.28738 6.58622 9.34249 6.63674C9.41139 6.70104 9.50325 6.7286 9.64103 6.7286C9.78801 6.7286 9.87068 6.70104 9.94416 6.62296C10.0222 6.54489 10.0498 6.46681 10.0498 6.31524C10.0498 6.17286 10.0222 6.081 9.95794 6.0167C9.90742 5.96618 9.79719 5.91566 9.70533 5.90188C9.61347 5.8881 9.50325 5.90188 9.44354 5.93403C9.38842 5.97077 9.31034 6.05804 9.26901 6.13152ZM8.59844 7.45887C8.59844 7.51399 8.64437 7.61044 8.69489 7.68393C8.76379 7.77578 8.84187 7.81712 9.0164 7.84468C9.21849 7.87223 9.24604 7.89061 9.26901 8.01461C9.28279 8.09269 9.29197 8.56117 9.29197 9.0618V9.9666C8.76838 9.9666 8.70408 9.98038 8.61682 10.0676C8.55711 10.1273 8.51118 10.233 8.51118 10.3111C8.51118 10.3983 8.54792 10.4902 8.61682 10.5499C8.71786 10.6509 8.75001 10.6555 9.6594 10.6555C10.5826 10.6601 10.6055 10.6555 10.7066 10.5545C10.7617 10.4948 10.8076 10.3891 10.8076 10.3111C10.8122 10.2284 10.7709 10.1319 10.7066 10.0722C10.6239 9.98956 10.5504 9.9666 10.3254 9.9666H10.0498C9.98091 7.53236 9.96713 7.35783 9.89364 7.25678C9.81556 7.14656 9.78801 7.14196 9.30575 7.12818C8.80512 7.1144 8.79594 7.119 8.69489 7.23841C8.63978 7.30731 8.59385 7.40376 8.59844 7.45887ZM9.65022 13.2276C12.9571 13.2276 14.1421 13.2413 14.2202 13.2827C14.2753 13.3102 14.3488 13.3653 14.3763 13.4067C14.4085 13.448 14.436 13.5307 14.436 13.595C14.4406 13.6593 14.3993 13.7649 14.2523 13.9624H5.0665L4.97464 13.8384C4.92412 13.7649 4.88279 13.6593 4.88279 13.595C4.88738 13.5307 4.91034 13.448 4.94249 13.4067C4.97464 13.3699 5.03894 13.3102 5.08947 13.2827C5.15836 13.2459 6.37548 13.2322 9.65022 13.2276Z" fill="white"/>
</svg>
