<svg width="17" height="25" viewBox="0 0 17 25" fill="none" xmlns="http://www.w3.org/2000/svg">
<g clip-path="url(#clip0_448_5245)">
<path d="M9.05269 8.21423V14.7933L11.9098 11.9361L12.9201 12.9464L8.33841 17.5281L3.75671 12.9464L4.76698 11.9361L7.62412 14.7933V8.21423H1.01698C0.874896 8.21423 0.738635 8.27067 0.638169 8.37114C0.537703 8.47161 0.481262 8.60787 0.481262 8.74995V21.9642C0.481262 22.1063 0.537703 22.2426 0.638169 22.343C0.738635 22.4435 0.874896 22.4999 1.01698 22.4999H15.6598C15.8019 22.4999 15.9382 22.4435 16.0386 22.343C16.1391 22.2426 16.1955 22.1063 16.1955 21.9642V8.74995C16.1955 8.60787 16.1391 8.47161 16.0386 8.37114C15.9382 8.27067 15.8019 8.21423 15.6598 8.21423H9.05269Z" fill="white"/>
<path d="M9.05272 2.5H7.62415V8.21429H9.05272V2.5Z" fill="white"/>
</g>
<defs>
<clipPath id="clip0_448_5245">
<rect width="15.7143" height="24" fill="white" transform="translate(0.481262 0.5)"/>
</clipPath>
</defs>
</svg>
