<svg width="41" height="41" viewBox="0 0 41 41" fill="none" xmlns="http://www.w3.org/2000/svg">
<circle opacity="0.1" cx="20.5" cy="20.5" r="20.5" fill="#FE524D"/>
<path fill-rule="evenodd" clip-rule="evenodd" d="M14.6001 12C13.1661 12 12.0001 13.166 12.0001 14.6C12.0001 21.988 18.0111 28 25.4001 28C26.8331 28 28.0001 26.834 28.0001 25.4C28.0001 25.289 27.9931 25.18 27.9791 25.072L23.3591 24.012C23.2671 24.188 23.1661 24.379 23.0741 24.557C22.6181 25.427 22.2881 26.059 21.4461 25.72C18.1401 24.56 15.4411 21.86 14.2661 18.514C13.9091 17.729 14.5891 17.373 15.4511 16.923C15.6261 16.831 15.8151 16.732 15.9881 16.642L14.9281 12.021C14.8171 12.007 14.7091 12 14.6001 12ZM25.4001 30C16.9081 30 10.0001 23.092 10.0001 14.6C10.0001 12.063 12.0631 10 14.6001 10C14.8601 10 15.1171 10.022 15.3661 10.065C15.6091 10.104 15.8531 10.166 16.0911 10.248C16.4161 10.361 16.6611 10.634 16.7381 10.97L18.1071 16.934C18.1831 17.262 18.0881 17.606 17.8541 17.85C17.7181 17.992 17.7151 17.995 16.4751 18.644C17.4791 20.818 19.2241 22.557 21.3541 23.527C22.0041 22.286 22.0081 22.282 22.1501 22.146C22.3941 21.912 22.7401 21.821 23.0661 21.893L29.0311 23.262C29.3661 23.339 29.6391 23.583 29.7511 23.908C29.8331 24.144 29.8951 24.388 29.9361 24.639C29.9781 24.886 30.0001 25.142 30.0001 25.4C30.0001 27.937 27.9361 30 25.4001 30Z" fill="#FE524D"/>
</svg>
