<svg width="22" height="22" viewBox="0 0 22 22" fill="none" xmlns="http://www.w3.org/2000/svg">
<path d="M1.95477 1.15234C1.73993 1.25781 1.58368 1.36719 1.45477 1.50391C1.35321 1.61328 1.21259 1.82031 1.14618 1.96484L1.01727 2.23047C0.997744 8.72266 0.997744 8.79688 1.07587 9.02734C1.11884 9.15625 1.21649 9.35156 1.28681 9.45703C1.36102 9.5625 1.49774 9.71484 1.59149 9.78906C1.68524 9.86328 1.85712 9.96875 1.97431 10.0234L2.18915 10.1211H8.98602C9.34931 9.94531 9.55243 9.79297 9.67352 9.67578C9.79071 9.55469 9.94306 9.35156 10.0056 9.22266L10.1188 8.98828V2.19141C9.96259 1.85938 9.86884 1.69531 9.80634 1.60938C9.73993 1.52734 9.61102 1.40234 9.51337 1.32812C9.41571 1.25781 9.22431 1.15625 9.08368 1.09766L8.82977 1H2.26727L1.95477 1.15234ZM12.8923 1.10156C12.7634 1.15625 12.5798 1.25781 12.4821 1.32812C12.3845 1.40234 12.2556 1.52734 12.1891 1.60938C12.1266 1.69531 12.0329 1.85938 11.9743 1.97656L11.8766 2.19141V8.98828C12.0524 9.35156 12.2048 9.55469 12.322 9.67578C12.4431 9.79297 12.6462 9.94531 12.7751 10.0078L13.0095 10.1211H19.8063C20.1071 9.98047 20.2673 9.89453 20.3493 9.83594C20.4352 9.77734 20.5798 9.625 20.6735 9.49609C20.7751 9.35938 20.8766 9.15625 20.9235 9.00781C20.9977 8.76562 20.9977 8.63281 20.9899 5.49219L20.9782 2.23047C20.7946 1.83594 20.6696 1.64453 20.5837 1.55078C20.5016 1.45703 20.361 1.33203 20.2751 1.27734C20.1891 1.21875 20.0212 1.13281 19.904 1.08594L19.6891 1L13.1266 1.00781L12.8923 1.10156ZM2.15009 11.9102C2.06415 11.9375 1.93134 11.9922 1.85712 12.0312C1.7829 12.0703 1.66181 12.1484 1.58759 12.2031C1.51337 12.2617 1.38837 12.4023 1.30243 12.5195C1.2204 12.6406 1.11493 12.8516 1.07196 12.9883C0.997744 13.2344 0.997744 13.3555 1.00556 16.5078L1.01727 19.7734C1.25556 20.2578 1.37274 20.418 1.51337 20.5469C1.63446 20.6602 1.83759 20.7969 2.00165 20.8711L2.28681 20.9961L8.82977 21C9.22431 20.8438 9.41571 20.7383 9.51337 20.668C9.61102 20.5977 9.73993 20.4727 9.80634 20.3867C9.86884 20.3047 9.96259 20.1406 10.0212 20.0195L10.1188 19.8047V13.0078C9.94306 12.6445 9.79071 12.4414 9.67352 12.3242C9.55243 12.2031 9.34931 12.0547 9.2204 11.9922L8.98602 11.875C3.02899 11.8633 2.27118 11.8711 2.15009 11.9102ZM12.9313 11.9297C12.822 11.9688 12.6579 12.0508 12.5602 12.1172C12.4626 12.1836 12.3181 12.3125 12.236 12.4062C12.154 12.5039 12.0407 12.6758 11.9821 12.793L11.8766 13.0078V19.8047C12.0329 20.1406 12.1266 20.3047 12.1891 20.3867C12.2556 20.4727 12.3845 20.5977 12.4821 20.668C12.5798 20.7383 12.7712 20.8438 12.9118 20.8984L13.1657 21L19.7087 20.9961C20.1579 20.7969 20.361 20.6602 20.4821 20.5469C20.6227 20.418 20.7399 20.2578 20.8337 20.0625L20.9782 19.7734L20.9977 13.2031C20.8649 12.8125 20.7516 12.6016 20.6657 12.4805C20.5759 12.3633 20.4352 12.2188 20.3493 12.1602C20.2673 12.1055 20.1071 12.0156 20.0016 11.9648L19.8063 11.875C13.3454 11.8594 13.1149 11.8633 12.9313 11.9297Z" fill="#C8C8C8" stroke="#FFEFEE"/>
</svg>
