<svg width="22" height="22" viewBox="0 0 22 22" fill="none" xmlns="http://www.w3.org/2000/svg">
<path d="M1.95481 1.15234C1.73996 1.25781 1.58371 1.36719 1.45481 1.50391C1.35324 1.61328 1.21262 1.82031 1.14621 1.96484L1.01731 2.23047C0.997774 8.72266 0.997774 8.79688 1.0759 9.02734C1.11887 9.15625 1.21652 9.35156 1.28684 9.45703C1.36106 9.5625 1.49777 9.71484 1.59152 9.78906C1.68527 9.86328 1.85715 9.96875 1.97434 10.0234L2.18918 10.1211H8.98606C9.34934 9.94531 9.55246 9.79297 9.67356 9.67578C9.79074 9.55469 9.94309 9.35156 10.0056 9.22266L10.1189 8.98828V2.19141C9.96262 1.85938 9.86887 1.69531 9.80637 1.60938C9.73996 1.52734 9.61106 1.40234 9.5134 1.32812C9.41574 1.25781 9.22434 1.15625 9.08371 1.09766L8.82981 1H2.26731L1.95481 1.15234ZM12.8923 1.10156C12.7634 1.15625 12.5798 1.25781 12.4821 1.32812C12.3845 1.40234 12.2556 1.52734 12.1892 1.60938C12.1267 1.69531 12.0329 1.85938 11.9743 1.97656L11.8767 2.19141V8.98828C12.0525 9.35156 12.2048 9.55469 12.322 9.67578C12.4431 9.79297 12.6462 9.94531 12.7751 10.0078L13.0095 10.1211H19.8064C20.1071 9.98047 20.2673 9.89453 20.3493 9.83594C20.4353 9.77734 20.5798 9.625 20.6736 9.49609C20.7751 9.35938 20.8767 9.15625 20.9236 9.00781C20.9978 8.76562 20.9978 8.63281 20.99 5.49219L20.9782 2.23047C20.7946 1.83594 20.6696 1.64453 20.5837 1.55078C20.5017 1.45703 20.3611 1.33203 20.2751 1.27734C20.1892 1.21875 20.0212 1.13281 19.904 1.08594L19.6892 1L13.1267 1.00781L12.8923 1.10156ZM2.15012 11.9102C2.06418 11.9375 1.93137 11.9922 1.85715 12.0312C1.78293 12.0703 1.66184 12.1484 1.58762 12.2031C1.5134 12.2617 1.3884 12.4023 1.30246 12.5195C1.22043 12.6406 1.11496 12.8516 1.07199 12.9883C0.997774 13.2344 0.997774 13.3555 1.00559 16.5078L1.01731 19.7734C1.25559 20.2578 1.37277 20.418 1.5134 20.5469C1.63449 20.6602 1.83762 20.7969 2.00168 20.8711L2.28684 20.9961L8.82981 21C9.22434 20.8438 9.41574 20.7383 9.5134 20.668C9.61106 20.5977 9.73996 20.4727 9.80637 20.3867C9.86887 20.3047 9.96262 20.1406 10.0212 20.0195L10.1189 19.8047V13.0078C9.94309 12.6445 9.79074 12.4414 9.67356 12.3242C9.55246 12.2031 9.34934 12.0547 9.22043 11.9922L8.98606 11.875C3.02902 11.8633 2.27121 11.8711 2.15012 11.9102ZM12.9314 11.9297C12.822 11.9688 12.6579 12.0508 12.5603 12.1172C12.4626 12.1836 12.3181 12.3125 12.2361 12.4062C12.154 12.5039 12.0407 12.6758 11.9821 12.793L11.8767 13.0078V19.8047C12.0329 20.1406 12.1267 20.3047 12.1892 20.3867C12.2556 20.4727 12.3845 20.5977 12.4821 20.668C12.5798 20.7383 12.7712 20.8438 12.9118 20.8984L13.1657 21L19.7087 20.9961C20.1579 20.7969 20.3611 20.6602 20.4821 20.5469C20.6228 20.418 20.74 20.2578 20.8337 20.0625L20.9782 19.7734L20.9978 13.2031C20.865 12.8125 20.7517 12.6016 20.6657 12.4805C20.5759 12.3633 20.4353 12.2188 20.3493 12.1602C20.2673 12.1055 20.1071 12.0156 20.0017 11.9648L19.8064 11.875C13.3454 11.8594 13.115 11.8633 12.9314 11.9297Z" fill="#FE524D" stroke="#FFEFEE"/>
</svg>
