<svg width="25" height="1.5" viewBox="0 0 33 33" fill="none" xmlns="http://www.w3.org/2000/svg">
<rect x="0.5" y="0.599976" width="32" height="32" rx="8" fill="#F7ECEB" fill-opacity="0.75"/>
<path d="M21.6725 20.5939C21.998 20.9194 21.998 21.447 21.6725 21.7724C21.3471 22.0979 20.8194 22.0979 20.494 21.7724L16.4999 17.7785L12.506 21.7725C12.1806 22.0979 11.6529 22.0979 11.3275 21.7725C11.0021 21.447 11.0021 20.9194 11.3275 20.594L15.3214 16.6L11.3273 12.6059C11.0019 12.2805 11.0019 11.7529 11.3273 11.4274C11.6528 11.102 12.1804 11.102 12.5059 11.4274L16.4999 15.4214L20.4939 11.4274C20.8193 11.102 21.3469 11.102 21.6724 11.4274C21.9978 11.7529 21.9978 12.2805 21.6724 12.6059L17.6784 16.5999L21.6725 20.5939Z" fill="#FE524D"/>
</svg>
