<svg width="21" height="21" viewBox="0 0 21 21" fill="none" xmlns="http://www.w3.org/2000/svg">
<path fill-rule="evenodd" clip-rule="evenodd" d="M17.8296 4.967L16.3916 6.357C16.1976 6.544 15.9466 6.638 15.6966 6.638C15.4346 6.638 15.1736 6.535 14.9776 6.332C14.5946 5.936 14.6046 5.302 15.0026 4.919L16.4406 3.53C16.8376 3.147 17.4736 3.157 17.8536 3.554C18.2376 3.95 18.2266 4.584 17.8296 4.967ZM6.34556 6.332C6.14956 6.535 5.88856 6.638 5.62656 6.638C5.37656 6.638 5.12556 6.545 4.93156 6.358L3.49256 4.968C3.09556 4.584 3.08456 3.95 3.46856 3.554C3.85256 3.157 4.48456 3.145 4.88256 3.529L6.32156 4.918C6.71856 5.302 6.72956 5.936 6.34556 6.332ZM4.66156 10.5C4.66156 11.053 4.21356 11.5 3.66156 11.5H1.66156C1.10956 11.5 0.66156 11.053 0.66156 10.5C0.66156 9.947 1.10956 9.5 1.66156 9.5H3.66156C4.21356 9.5 4.66156 9.947 4.66156 10.5ZM20.6616 10.5C20.6616 11.053 20.2146 11.5 19.6616 11.5H17.6616C17.1086 11.5 16.6616 11.053 16.6616 10.5C16.6616 9.947 17.1086 9.5 17.6616 9.5H19.6616C20.2146 9.5 20.6616 9.947 20.6616 10.5ZM9.66156 3.5V1.5C9.66156 0.947 10.1096 0.5 10.6616 0.5C11.2136 0.5 11.6616 0.947 11.6616 1.5V3.5C11.6616 4.053 11.2136 4.5 10.6616 4.5C10.1096 4.5 9.66156 4.053 9.66156 3.5ZM12.1626 13.093C11.8526 13.272 11.6616 13.603 11.6616 13.96V18.5H9.66156V13.96C9.66156 13.603 9.47056 13.272 9.16056 13.093C8.23556 12.562 7.66156 11.568 7.66156 10.5C7.66156 8.846 9.00756 7.5 10.6616 7.5C12.3156 7.5 13.6616 8.846 13.6616 10.5C13.6616 11.568 13.0876 12.562 12.1626 13.093ZM10.6616 5.5C7.90456 5.5 5.66156 7.743 5.66156 10.5C5.66156 12.079 6.41456 13.562 7.66156 14.496V18.5C7.66156 19.603 8.55856 20.5 9.66156 20.5H11.6616C12.7646 20.5 13.6616 19.603 13.6616 18.5V14.496C14.9076 13.562 15.6616 12.079 15.6616 10.5C15.6616 7.743 13.4186 5.5 10.6616 5.5Z" fill="white"/>
</svg>
