<svg width="41" height="41" viewBox="0 0 41 41" fill="none" xmlns="http://www.w3.org/2000/svg">
<circle opacity="0.1" cx="20.5" cy="20.5" r="20.5" fill="#FE524D"/>
<path fill-rule="evenodd" clip-rule="evenodd" d="M27 27H13C12.449 27 12 26.552 12 26V16.25L19.4 21.8C19.578 21.934 19.789 22 20 22C20.211 22 20.422 21.934 20.6 21.8L28 16.25V26C28 26.552 27.551 27 27 27ZM26.333 15L20 19.75L13.667 15H26.333ZM27 13H13C11.346 13 10 14.346 10 16V26C10 27.654 11.346 29 13 29H27C28.654 29 30 27.654 30 26V16C30 14.346 28.654 13 27 13Z" fill="#FE524D"/>
</svg>
