<svg width="19" height="16" viewBox="0 0 19 16" fill="none" xmlns="http://www.w3.org/2000/svg">
<path d="M8.46155 0.0887572C8.27745 0.134784 8.02253 0.223298 7.89507 0.283488C7.76761 0.343677 7.56934 0.460515 7.4525 0.541948C7.33566 0.626921 7.14447 0.800408 7.02763 0.927868C6.91079 1.05533 6.74439 1.29255 6.65941 1.45541C6.5709 1.61828 6.46822 1.84487 6.42928 1.96171C6.35847 2.1706 6.35493 2.25912 6.3443 5.7324C6.33722 8.86933 6.34076 9.32252 6.39033 9.5739C6.42574 9.7403 6.51071 9.98814 6.60276 10.1758C6.68774 10.3493 6.84352 10.5971 6.9462 10.7246C7.05241 10.852 7.24715 11.0361 7.38169 11.1388C7.51977 11.2415 7.72512 11.3725 7.84196 11.4291C7.9588 11.4858 8.17477 11.5672 8.31993 11.6133C8.54299 11.6841 8.65983 11.6982 9.06345 11.6982C9.46707 11.6982 9.58391 11.6841 9.80696 11.6133C9.95213 11.5672 10.1681 11.4858 10.2849 11.4291C10.4018 11.3725 10.6071 11.2415 10.7452 11.1388C10.8798 11.0361 11.0745 10.852 11.1807 10.7246C11.2834 10.5971 11.4392 10.3493 11.5241 10.1758C11.6162 9.98814 11.7012 9.7403 11.7366 9.5739C11.7861 9.32252 11.7897 8.86933 11.7826 5.7324C11.772 2.25912 11.7684 2.1706 11.6976 1.96171C11.6587 1.84487 11.556 1.61828 11.4675 1.45541C11.3825 1.29255 11.2161 1.05533 11.0993 0.927868C10.9824 0.800408 10.7912 0.626921 10.6744 0.541948C10.5576 0.460515 10.3593 0.343677 10.2318 0.283488C10.1044 0.223298 9.84237 0.134784 9.64764 0.0852167C9.42813 0.0321084 9.19799 -0.00329712 9.04575 0.000243434C8.90766 0.000243434 8.6492 0.0391895 8.46155 0.0887572ZM1.85842 0.722516C1.79823 0.750841 1.65661 0.881841 1.53977 1.01284C1.4194 1.14738 1.25299 1.34919 1.16094 1.46603C1.07242 1.58287 0.916637 1.82009 0.813961 1.99712C0.707744 2.1706 0.555501 2.47509 0.474068 2.66982C0.389095 2.86455 0.279337 3.1655 0.22977 3.34253C0.180202 3.51601 0.10585 3.85591 0.0704448 4.09666C0.0279582 4.35866 -0.000366211 4.7021 -0.000366211 4.97118C-0.000366211 5.2438 0.0244177 5.56599 0.0669043 5.81383C0.10585 6.0298 0.162499 6.31305 0.194364 6.44051C0.226229 6.56797 0.300581 6.80519 0.36077 6.97159C0.42096 7.138 0.523636 7.3823 0.590906 7.52038C0.661717 7.65492 0.771474 7.86381 0.842285 7.98065C0.913096 8.09749 1.05826 8.31346 1.16802 8.45862C1.27777 8.60379 1.4725 8.83038 1.59642 8.96138C1.74159 9.11363 1.86551 9.20922 1.94694 9.23046C2.02483 9.25171 2.12397 9.25525 2.21248 9.234C2.29037 9.2163 2.39305 9.16673 2.43553 9.12425C2.48156 9.07822 2.54175 9.00033 2.57008 8.94722C2.5984 8.89057 2.61964 8.78789 2.61964 8.71708C2.61964 8.64273 2.59132 8.53298 2.55237 8.47633C2.51697 8.41614 2.38951 8.25681 2.26559 8.12227C2.14521 7.98419 1.9611 7.74697 1.85842 7.59119C1.75575 7.4354 1.62475 7.21235 1.56456 7.09551C1.50791 6.97867 1.41585 6.7627 1.36629 6.61754C1.31318 6.47237 1.23883 6.23162 1.20342 6.08645C1.16802 5.94129 1.11845 5.64388 1.09366 5.43145C1.06888 5.20486 1.0618 4.89329 1.07596 4.68793C1.09012 4.4932 1.13261 4.18164 1.16802 3.99753C1.20342 3.81342 1.27777 3.5408 1.33088 3.39563C1.38399 3.25047 1.48667 3.00263 1.56456 2.84685C1.64245 2.69106 1.79115 2.43614 1.89383 2.28036C1.99651 2.12457 2.19832 1.86966 2.3364 1.71387C2.51343 1.5156 2.59132 1.39522 2.60902 1.30671C2.61964 1.23944 2.61964 1.13322 2.60548 1.07657C2.59486 1.01638 2.54883 0.924328 2.50635 0.867679C2.46032 0.81103 2.3718 0.743759 2.31161 0.715435C2.24788 0.690651 2.14167 0.669408 2.08148 0.669408C2.01775 0.669408 1.91507 0.694192 1.85842 0.722516ZM15.7976 0.718976C15.7339 0.7473 15.6489 0.81457 15.6099 0.867679C15.571 0.924328 15.532 1.01638 15.5214 1.07657C15.5073 1.13322 15.5073 1.23944 15.5179 1.30671C15.5356 1.39522 15.6135 1.5156 15.7905 1.71387C15.9286 1.86966 16.1304 2.12457 16.2331 2.28036C16.3357 2.43614 16.4844 2.69106 16.5623 2.84685C16.6402 3.00263 16.7429 3.25047 16.796 3.39563C16.8491 3.5408 16.9235 3.81342 16.9589 3.99753C16.9943 4.18164 17.0368 4.4932 17.0509 4.68793C17.0651 4.89329 17.058 5.20486 17.0332 5.43145C17.0084 5.64388 16.9589 5.94129 16.9235 6.08645C16.8881 6.23162 16.8137 6.47237 16.7606 6.61754C16.711 6.7627 16.619 6.97867 16.5623 7.09551C16.5021 7.21235 16.3711 7.4354 16.2685 7.59119C16.1658 7.74697 15.9817 7.98419 15.8613 8.12227C15.7374 8.25681 15.6099 8.41614 15.5745 8.47633C15.5356 8.53298 15.5073 8.64273 15.5073 8.71708C15.5073 8.78789 15.5285 8.89057 15.5568 8.94722C15.5851 9.00033 15.6453 9.07822 15.6914 9.12425C15.7339 9.16673 15.8365 9.2163 15.9144 9.234C16.0029 9.25525 16.1021 9.25171 16.18 9.23046C16.2614 9.20922 16.3853 9.11363 16.5305 8.96138C16.6544 8.83038 16.8491 8.60379 16.9589 8.45862C17.0686 8.31346 17.2138 8.09749 17.2846 7.98065C17.3554 7.86381 17.4652 7.65492 17.536 7.52038C17.6033 7.3823 17.7059 7.138 17.7661 6.97159C17.8263 6.80519 17.9007 6.56797 17.9325 6.44051C17.9679 6.31305 18.0246 6.02626 18.06 5.80321C18.0989 5.55891 18.1273 5.21548 18.1273 4.94285C18.1273 4.65607 18.1025 4.34096 18.0565 4.07896C18.0175 3.84882 17.9467 3.51601 17.8971 3.34253C17.844 3.1655 17.7378 2.86455 17.6528 2.66982C17.5714 2.47509 17.4192 2.1706 17.3129 1.99712C17.2103 1.82009 17.0545 1.58287 16.966 1.46603C16.8739 1.34919 16.7075 1.14738 16.5871 1.01284C16.4703 0.881841 16.3216 0.750841 16.2614 0.722516C16.1977 0.694192 16.0914 0.669408 16.0313 0.669408C15.9675 0.672948 15.8613 0.694192 15.7976 0.718976ZM4.49968 8.59316C4.43241 8.63211 4.34035 8.71708 4.29432 8.78435C4.22351 8.88349 4.20935 8.94368 4.21289 9.18444C4.21289 9.34022 4.23768 9.61638 4.266 9.79341C4.29432 9.97398 4.36868 10.2785 4.42887 10.4661C4.48905 10.6573 4.60235 10.9405 4.68024 11.0963C4.75814 11.2521 4.91392 11.5141 5.02014 11.6805C5.13698 11.8505 5.38836 12.1479 5.61141 12.3709C5.83092 12.5904 6.13187 12.8489 6.30182 12.9622C6.46822 13.072 6.74439 13.2313 6.92141 13.3198C7.0949 13.4083 7.39231 13.5252 7.57642 13.5853C7.76053 13.6455 8.01545 13.7093 8.14291 13.734C8.27036 13.7553 8.40845 13.7801 8.45447 13.7907C8.53237 13.8049 8.53237 13.8119 8.53237 14.3536V14.9024C6.74439 14.9201 6.69128 14.9237 6.59568 14.9945C6.54258 15.0334 6.46114 15.1219 6.41512 15.1892C6.36555 15.2636 6.33722 15.3627 6.33722 15.4406C6.33722 15.5149 6.35847 15.6176 6.38679 15.6707C6.41512 15.7274 6.4753 15.8017 6.52133 15.8407C6.56382 15.8796 6.63817 15.9327 6.6842 15.954C6.74439 15.9894 7.28963 16 9.06345 16C10.8373 16 11.3825 15.9894 11.4462 15.954C11.4887 15.9327 11.5631 15.8796 11.6056 15.8407C11.6516 15.8017 11.7118 15.7274 11.7401 15.6707C11.7684 15.6176 11.7897 15.5149 11.7897 15.4406C11.7897 15.3627 11.7613 15.2636 11.7118 15.1892C11.6658 15.1219 11.5843 15.0334 11.5312 14.9945C11.4356 14.9237 11.3825 14.9201 10.5115 14.9095L9.59453 14.9024C9.59453 13.8119 9.59453 13.8049 9.67596 13.7907C9.71845 13.7801 9.85653 13.7553 9.98399 13.734C10.1115 13.7093 10.3664 13.6455 10.5505 13.5853C10.7346 13.5252 11.0285 13.4083 11.2055 13.3198C11.379 13.2313 11.6587 13.072 11.8251 12.9622C11.995 12.8489 12.296 12.5904 12.5155 12.3709C12.7385 12.1479 12.9899 11.8505 13.1032 11.6805C13.213 11.5141 13.3688 11.2521 13.4467 11.0963C13.5245 10.9405 13.6378 10.6573 13.698 10.4661C13.7582 10.2785 13.8326 9.97398 13.8609 9.79341C13.8892 9.61638 13.914 9.34022 13.914 9.18444C13.9175 8.94722 13.9034 8.87995 13.8361 8.78081C13.7901 8.71354 13.698 8.62857 13.6308 8.59316C13.5422 8.5436 13.4644 8.52943 13.3475 8.5436C13.259 8.55422 13.1492 8.58962 13.1032 8.62503C13.0572 8.66043 12.9899 8.72771 12.951 8.77727C12.9014 8.84454 12.8766 8.95784 12.8518 9.23754C12.8341 9.4429 12.7952 9.71906 12.7633 9.85714C12.735 9.99168 12.6748 10.19 12.6394 10.2891C12.6005 10.3918 12.519 10.5759 12.4588 10.6963C12.3951 10.8202 12.2818 11.0149 12.2039 11.1317C12.126 11.2486 11.9561 11.4539 11.8286 11.5885C11.7012 11.7195 11.5064 11.8965 11.4002 11.9779C11.294 12.0594 11.1099 12.1868 10.9931 12.2541C10.8762 12.3249 10.6355 12.4417 10.462 12.5126C10.2849 12.5834 9.98753 12.6719 9.79988 12.7073C9.58037 12.7533 9.30775 12.7781 9.06345 12.7781C8.81915 12.7781 8.54653 12.7533 8.33055 12.7073C8.13937 12.6719 7.83842 12.5834 7.66493 12.5126C7.4879 12.4417 7.25069 12.3249 7.13385 12.2541C7.01701 12.1868 6.8329 12.0594 6.72668 11.9779C6.62047 11.8965 6.42574 11.7195 6.29828 11.5885C6.17082 11.4539 6.00087 11.2486 5.92298 11.1317C5.84509 11.0149 5.73179 10.8202 5.66806 10.6963C5.60787 10.5759 5.52644 10.3918 5.48749 10.2891C5.45209 10.19 5.3919 9.99168 5.36357 9.85714C5.33171 9.71906 5.29276 9.4429 5.27506 9.23754C5.25381 8.972 5.22549 8.841 5.17946 8.78081C5.14406 8.73479 5.07679 8.66752 5.02722 8.62857C4.97765 8.58962 4.86789 8.55422 4.77938 8.5436C4.66254 8.52943 4.58819 8.5436 4.49968 8.59316ZM3.48708 2.1883C3.42689 2.20247 3.34192 2.24141 3.29235 2.27328C3.24278 2.30868 3.12594 2.42906 3.03389 2.53882C2.94183 2.64858 2.80729 2.82914 2.73294 2.93536C2.66213 3.04158 2.54529 3.25755 2.47448 3.41334C2.40013 3.56912 2.30807 3.81696 2.26913 3.96212C2.22664 4.10728 2.17707 4.39407 2.15229 4.59942C2.12042 4.88975 2.12397 5.05261 2.15583 5.34294C2.18061 5.54829 2.23726 5.84215 2.28329 5.99794C2.32932 6.15372 2.41075 6.37678 2.46032 6.49362C2.51343 6.61045 2.64089 6.83351 2.74002 6.98929C2.8427 7.14508 3.01264 7.36459 3.11886 7.47789C3.2357 7.60535 3.35608 7.70094 3.43397 7.72219C3.50124 7.74343 3.61808 7.75051 3.69243 7.73635C3.76678 7.72573 3.87654 7.66554 3.95089 7.59827C4.02524 7.531 4.08897 7.43186 4.11022 7.35043C4.12792 7.27962 4.12792 7.16632 4.11376 7.10259C4.09605 7.0424 3.97921 6.85829 3.84821 6.69543C3.71721 6.5361 3.55435 6.29181 3.48708 6.15726C3.41981 6.01918 3.32775 5.78551 3.28527 5.63326C3.22508 5.42437 3.20737 5.26504 3.20737 4.95348C3.21092 4.67731 3.22862 4.47196 3.2711 4.31618C3.30651 4.18872 3.37732 3.99045 3.43043 3.87361C3.48354 3.75677 3.58267 3.57974 3.6464 3.48415C3.71367 3.38501 3.83759 3.23277 3.91903 3.13717C4.004 3.04512 4.08543 2.91058 4.10668 2.83623C4.12792 2.75125 4.12792 2.66274 4.10668 2.58131C4.08543 2.51404 4.04649 2.42198 4.01816 2.37595C3.98984 2.33347 3.92257 2.27682 3.86946 2.24849C3.81281 2.22371 3.73138 2.19185 3.68181 2.18476C3.63224 2.17414 3.54373 2.17768 3.48708 2.1883ZM14.3566 2.20955C14.2787 2.23787 14.1795 2.3016 14.1371 2.35117C14.091 2.40074 14.0415 2.49987 14.0202 2.57068C13.999 2.6592 13.999 2.75125 14.0202 2.83623C14.0415 2.91058 14.1229 3.04512 14.2079 3.13717C14.2893 3.23277 14.4132 3.38501 14.4805 3.48415C14.5442 3.57974 14.6434 3.75677 14.6965 3.87361C14.7496 3.99045 14.8204 4.18872 14.8558 4.31618C14.8983 4.47196 14.916 4.67731 14.9195 4.95348C14.9195 5.26504 14.9018 5.42437 14.8416 5.63326C14.7991 5.78551 14.7071 6.01918 14.6398 6.15726C14.5725 6.29181 14.4097 6.5361 14.2787 6.69543C14.1477 6.85829 14.0308 7.0424 14.0131 7.10259C13.999 7.16632 13.999 7.27962 14.0167 7.35043C14.0379 7.43186 14.1017 7.531 14.176 7.59827C14.2504 7.66554 14.3601 7.72573 14.438 7.73635C14.5088 7.75051 14.6257 7.74343 14.6929 7.72219C14.7708 7.70094 14.8912 7.60535 15.008 7.47789C15.1143 7.36459 15.2842 7.14508 15.3869 6.98929C15.486 6.83351 15.6135 6.61045 15.6666 6.49362C15.7161 6.37678 15.7976 6.15372 15.8436 5.99794C15.8896 5.84215 15.9463 5.54829 15.9711 5.34294C16.0029 5.05261 16.0065 4.88975 15.9746 4.59942C15.9498 4.39407 15.9003 4.10728 15.8578 3.96212C15.8188 3.81696 15.7268 3.56912 15.6524 3.41334C15.5816 3.25755 15.4648 3.04158 15.394 2.93536C15.3196 2.82914 15.1815 2.64504 15.0824 2.5282C14.9833 2.41136 14.8593 2.29098 14.8062 2.25912C14.7531 2.22725 14.6611 2.19185 14.6044 2.18122C14.5442 2.1706 14.4345 2.18476 14.3566 2.20955ZM4.85019 3.75323C4.78292 3.79572 4.68733 3.88069 4.63776 3.93734C4.58819 3.99753 4.51738 4.10374 4.47489 4.17101C4.43595 4.24183 4.38284 4.35512 4.35805 4.42239C4.33327 4.48966 4.30141 4.64191 4.2837 4.75875C4.266 4.88267 4.266 5.06677 4.28724 5.20131C4.30495 5.32877 4.36159 5.51996 4.41116 5.62618C4.46073 5.7324 4.55987 5.89172 4.63068 5.9767C4.70503 6.06167 4.80416 6.15372 4.86081 6.17851C4.91392 6.20683 5.02368 6.22808 5.10865 6.22808C5.19362 6.22808 5.30338 6.19975 5.37419 6.15726C5.43438 6.11832 5.51936 6.03334 5.5583 5.96961C5.60079 5.90234 5.62911 5.79259 5.62911 5.70407C5.62911 5.59078 5.60079 5.51288 5.50165 5.36772C5.43084 5.26859 5.36003 5.13404 5.34233 5.0774C5.32463 5.01367 5.32463 4.92161 5.34587 4.84726C5.36357 4.77999 5.43084 4.65253 5.49457 4.56402C5.55476 4.4755 5.61495 4.34804 5.62203 4.28077C5.63265 4.2135 5.61849 4.09666 5.59725 4.02231C5.57246 3.94088 5.50873 3.8559 5.4273 3.79218C5.33879 3.72845 5.24319 3.69304 5.13698 3.68596C5.0166 3.67888 4.94225 3.69658 4.85019 3.75323ZM12.781 3.74615C12.7138 3.78155 12.6252 3.85591 12.5863 3.90901C12.5332 3.97628 12.5155 4.05772 12.5155 4.20642C12.5155 4.37637 12.5332 4.42947 12.6323 4.56402C12.6961 4.65253 12.7633 4.77999 12.781 4.84726C12.8023 4.92161 12.8023 5.01367 12.7846 5.0774C12.7669 5.13404 12.6961 5.26859 12.6252 5.36772C12.5261 5.51288 12.4978 5.59078 12.4978 5.70407C12.4978 5.79259 12.5261 5.90234 12.5686 5.96961C12.6075 6.03334 12.6925 6.11832 12.7562 6.15726C12.8235 6.19975 12.9333 6.22808 13.0218 6.22808C13.1032 6.22808 13.213 6.20683 13.2696 6.17851C13.3227 6.15372 13.4219 6.06167 13.4962 5.9767C13.567 5.89172 13.6662 5.7324 13.7157 5.62618C13.7653 5.51996 13.822 5.32877 13.8397 5.20131C13.8609 5.06677 13.8609 4.88267 13.8432 4.75875C13.8255 4.64191 13.7936 4.48966 13.7688 4.42239C13.7441 4.35512 13.691 4.24183 13.652 4.17101C13.6095 4.10374 13.5387 3.99753 13.4891 3.93734C13.4396 3.88069 13.344 3.79926 13.2767 3.75677C13.2094 3.71428 13.0961 3.67888 13.0289 3.67888C12.9616 3.67888 12.8483 3.7072 12.781 3.74615Z" fill="#FE524D"/>
</svg>
