<svg width="17" height="20" viewBox="0 0 17 20" fill="none" xmlns="http://www.w3.org/2000/svg">
<path d="M3.59813 10.2913L3.59809 10.2912C3.46539 10.3268 3.23589 10.4104 3.11596 10.4673L3.11146 10.4694L3.11145 10.4694C2.98357 10.5284 2.77705 10.6437 2.65966 10.7205C2.55231 10.7936 2.37862 10.9379 2.29642 11.0231L2.29033 11.0294L2.29028 11.0293C2.18816 11.1314 2.02863 11.3095 1.94841 11.4154L1.94268 11.4229L1.94261 11.4229C1.86087 11.5266 1.70307 11.7655 1.60316 11.9439L1.60105 11.9477L1.60103 11.9477C1.50411 12.1173 1.35128 12.4375 1.2749 12.6389C1.19495 12.8497 1.06829 13.2412 1.0033 13.5012L1.0029 13.5028C0.936629 13.7642 0.845972 14.2055 0.800888 14.4753C0.760194 14.7388 0.707419 15.1982 0.684819 15.4866C0.665612 15.7834 0.647003 16.2063 0.647003 16.4279C0.647003 16.6417 0.66505 16.9301 0.681163 17.0609C0.703238 17.1993 0.74153 17.4031 0.767844 17.5138C0.793826 17.6044 0.88602 17.8391 0.97717 18.0214C1.08834 18.2437 1.18994 18.3884 1.35387 18.5655L3.59813 10.2913ZM3.59813 10.2913L3.60898 10.2881M3.59813 10.2913L3.60898 10.2881M3.60898 10.2881C3.73417 10.2515 3.97445 10.206 4.12544 10.1885C4.2125 10.1805 4.29947 10.1717 4.36941 10.1645C4.39738 10.1616 4.42151 10.159 4.4417 10.1569C4.45167 10.1559 4.46068 10.155 4.46871 10.1541M3.60898 10.2881L4.46871 10.1541M2.11497 19.1563L2.1149 19.1564C2.21124 19.2061 2.42638 19.2926 2.57975 19.3417C2.74429 19.3901 2.97724 19.4481 3.09518 19.4662L3.10358 19.4675C3.10397 19.4676 3.1047 19.4676 3.10578 19.4677C3.11297 19.4684 3.13598 19.4707 3.18316 19.4733C3.24274 19.4766 3.32561 19.4797 3.43604 19.4826C3.65653 19.4883 3.9757 19.4927 4.41605 19.4956C5.2961 19.5015 6.64999 19.5015 8.64474 19.4956H8.64511L13.9316 19.484C14.3829 19.3583 14.6431 19.2567 14.8012 19.1844C14.9661 19.103 15.2091 18.9532 15.3274 18.8598C15.4484 18.7606 15.6367 18.5722 15.7326 18.4553C15.8349 18.3204 15.964 18.122 16.0144 18.0214L16.4616 18.245L16.0144 18.0214C16.0709 17.9083 16.1547 17.6964 16.1952 17.5688C16.2304 17.4534 16.2881 17.1656 16.3175 16.9412L16.3176 16.9401C16.359 16.6302 16.3637 16.4538 16.3339 16.0037L16.3337 16.0004C16.3146 15.6802 16.2881 15.3084 16.2765 15.1672C16.261 15.03 16.2198 14.7121 16.1788 14.4551C16.1382 14.2004 16.0512 13.7764 15.9878 13.519C15.9238 13.2591 15.8172 12.907 15.7525 12.7482L15.7479 12.7369L15.748 12.7369C15.6785 12.554 15.5648 12.2906 15.4997 12.1599C15.4269 12.0182 15.3045 11.8032 15.2249 11.6839L15.2195 11.6758L15.2196 11.6757C15.1434 11.5565 14.9903 11.3493 14.8844 11.2218C14.7841 11.106 14.5946 10.9277 14.4808 10.8439L14.474 10.8389L14.474 10.8388C14.345 10.7404 14.1161 10.5931 13.9867 10.5268L13.9782 10.5225L13.9782 10.5224C13.8507 10.454 13.6039 10.3545 13.4561 10.3136L13.4467 10.311L13.4467 10.3109C13.2976 10.2665 13.0003 10.2091 12.8024 10.1883L12.8015 10.1882C12.7041 10.1778 12.6016 10.1708 12.5179 10.1678C12.4761 10.1663 12.4424 10.1659 12.4183 10.1663C12.4031 10.1713 12.3841 10.178 12.3626 10.1863C12.3162 10.204 12.268 10.225 12.2304 10.2438L12.2237 10.2471L12.2237 10.2471C12.1517 10.2817 11.842 10.467 11.5367 10.6653L11.5328 10.6678L11.5328 10.6678C11.2363 10.8564 10.9094 11.056 10.8134 11.1065C10.7075 11.1623 10.4457 11.2672 10.252 11.3417C10.0239 11.4295 9.66497 11.5338 9.43723 11.5823C9.13575 11.6505 8.84421 11.676 8.50944 11.676C8.2336 11.676 7.85375 11.6427 7.63387 11.6006C7.41939 11.5595 7.06311 11.4581 6.82245 11.3751L6.81521 11.3726L6.81522 11.3726C6.59589 11.2931 6.31575 11.1841 6.2055 11.1261C6.10909 11.0753 5.71852 10.8359 5.35024 10.6019M2.11497 19.1563L5.3496 10.6015C5.34982 10.6017 5.35003 10.6018 5.35024 10.6019M2.11497 19.1563L2.10406 19.151M2.11497 19.1563L2.10406 19.151M5.35024 10.6019C5.13878 10.4686 4.95994 10.3622 4.82235 10.287C4.70271 10.2215 4.64084 10.1946 4.62239 10.1866C4.61673 10.1841 4.61516 10.1834 4.61726 10.1839L4.61304 10.1829L4.61305 10.1829C4.57695 10.1735 4.53402 10.1647 4.49611 10.1584C4.48566 10.1566 4.47647 10.1552 4.46871 10.1541M5.35024 10.6019L4.46871 10.1541M2.10406 19.151C2.01067 19.1057 1.8475 19.0039 1.7506 18.935M2.10406 19.151L1.7506 18.935M1.7506 18.935C1.67454 18.8779 1.48611 18.7081 1.35403 18.5657L1.7506 18.935ZM7.55842 0.56721L7.56024 0.566815C7.74697 0.526358 7.974 0.503828 8.35559 0.5C8.50566 0.500031 8.65477 0.502871 8.77316 0.50786C8.83299 0.510382 8.88149 0.51331 8.91667 0.516317C8.92812 0.517297 8.93645 0.518154 8.94208 0.518782C9.05169 0.549614 9.21705 0.583055 9.33032 0.603802C9.4367 0.626988 9.65709 0.689569 9.81348 0.742885L9.97482 0.26963L9.81348 0.742885C9.96987 0.796199 10.1865 0.885624 10.2788 0.931766C10.3726 0.978703 10.5654 1.09231 10.6939 1.17802L10.6939 1.1781L10.7021 1.18335C10.814 1.25487 11.0383 1.42793 11.1911 1.55813C11.3392 1.68845 11.5276 1.87451 11.6061 1.96484C11.7013 2.0792 11.828 2.23576 11.8886 2.31427L12.2786 2.01293L11.8886 2.31427C11.9397 2.38035 12.0374 2.52621 12.0952 2.62482L12.1004 2.63369L12.1059 2.64234C12.152 2.71398 12.2636 2.93917 12.343 3.12829L12.343 3.12829L12.3449 3.13271C12.4222 3.312 12.5181 3.59094 12.5534 3.73196C12.588 3.87049 12.6357 4.17514 12.658 4.40116C12.6822 4.6581 12.6824 4.91604 12.6577 5.18712L12.6577 5.18711L12.6572 5.19283C12.6384 5.43065 12.5979 5.71444 12.5729 5.8145L12.5727 5.81446L12.5699 5.8273C12.5443 5.94235 12.4811 6.15472 12.4318 6.29237C12.3844 6.42045 12.2767 6.66488 12.1967 6.81783C12.1167 6.97101 11.9743 7.20118 11.8882 7.31607L11.8881 7.31602L11.8828 7.32332C11.8014 7.43603 11.6014 7.66636 11.4421 7.82931L11.442 7.82941C11.2938 7.98115 11.0428 8.20268 10.9042 8.30748L11.2057 8.70631L10.9042 8.30748C10.7668 8.41133 10.5168 8.5686 10.3684 8.64615C10.2175 8.72505 9.97747 8.831 9.84809 8.8793C9.70282 8.92746 9.47925 8.99441 9.35307 9.0244C9.23194 9.05218 8.95555 9.09199 8.74858 9.10626L8.74857 9.10619L8.74003 9.10693C8.54243 9.12396 8.19166 9.12408 7.98435 9.10681L7.98367 9.10675C7.76425 9.08877 7.43662 9.03771 7.27174 8.99332L7.27176 8.99324L7.26302 8.99105C7.08989 8.94777 6.80179 8.84862 6.63834 8.77946C6.48216 8.70915 6.1941 8.54939 6.01417 8.42829L6.0142 8.42825L6.00861 8.4246C5.83309 8.30984 5.54201 8.07639 5.38134 7.91913C5.21055 7.75198 4.99836 7.51753 4.91147 7.40804C4.82965 7.29927 4.6795 7.06777 4.58202 6.89809C4.49494 6.74651 4.3556 6.4336 4.28675 6.22704L4.2868 6.22702L4.28445 6.22031C4.21126 6.01071 4.13207 5.66904 4.09626 5.43435C4.05725 5.14953 4.04398 4.90827 4.05779 4.63212L4.05784 4.63094C4.06876 4.40174 4.10571 4.08481 4.13423 3.94536C4.16524 3.79378 4.23397 3.54076 4.28167 3.40104C4.32959 3.26071 4.41755 3.04621 4.47071 2.93551C4.52913 2.82309 4.66164 2.5972 4.76524 2.44001C4.86035 2.29571 5.07125 2.03018 5.22298 1.86752C5.38225 1.70131 5.64495 1.46152 5.79916 1.34668C5.95828 1.22818 6.2583 1.0435 6.45029 0.945765C6.64644 0.845904 6.90207 0.740065 7.00898 0.706478C7.15041 0.667273 7.39388 0.602216 7.55842 0.56721Z" fill="#FE524D" stroke="#FFDDDC"/>
</svg>
