<svg width="18" height="20" viewBox="0 0 18 20" fill="none" xmlns="http://www.w3.org/2000/svg">
<path fill-rule="evenodd" clip-rule="evenodd" d="M9.11751 0.00406771C9.26282 0.0161767 9.51711 0.0525036 9.6826 0.0888304C9.84809 0.121121 10.1226 0.201847 10.288 0.262392C10.4535 0.326973 10.7078 0.456136 10.8531 0.548971C10.9984 0.641806 11.2043 0.79115 11.3092 0.883986C11.4182 0.976821 11.6039 1.1746 11.7209 1.33202C11.842 1.4854 12.0116 1.76794 12.1004 1.95765C12.1892 2.14735 12.2941 2.41779 12.3345 2.5631C12.391 2.76895 12.4071 2.96673 12.4031 3.47127C12.4031 4.06864 12.395 4.14533 12.2901 4.46017C12.2295 4.64987 12.1044 4.94049 12.0196 5.10598C11.9308 5.27147 11.7573 5.53383 11.6281 5.69124C11.4989 5.84462 11.2689 6.07066 11.1115 6.18367C10.9581 6.30073 10.7038 6.45814 10.5504 6.53483C10.393 6.61152 10.1387 6.7084 9.98532 6.75683C9.82791 6.80527 9.5494 6.86178 9.35969 6.88599C9.12962 6.91425 8.89955 6.91425 8.65334 6.88599C8.45152 6.86178 8.16091 6.80527 8.00753 6.75683C7.85011 6.7084 7.616 6.61556 7.4828 6.55098C7.34961 6.48236 7.1599 6.37338 7.05899 6.30476C6.95808 6.23615 6.7603 6.07066 6.61903 5.93746C6.47776 5.80022 6.28402 5.58226 6.19118 5.44906C6.09431 5.31587 5.95304 5.06965 5.87231 4.90416C5.79562 4.73867 5.69875 4.49246 5.66242 4.35926C5.6261 4.22606 5.58573 3.89104 5.57766 3.61254C5.56152 3.24523 5.57362 3.0192 5.61802 2.78509C5.65435 2.60749 5.73911 2.32495 5.80773 2.15946C5.87231 1.99397 5.98937 1.75987 6.06202 1.63878C6.13064 1.51769 6.32842 1.27551 6.49391 1.09791C6.6594 0.920313 6.89754 0.706388 7.01863 0.625661C7.13972 0.544935 7.33346 0.427881 7.44244 0.371373C7.55546 0.314864 7.76938 0.230102 7.9268 0.17763C8.08018 0.129194 8.35465 0.0646125 8.53225 0.0363583C8.70985 0.00810403 8.97221 -0.00804125 9.11751 0.00406771ZM8.22952 0.766932C8.10843 0.807296 7.91873 0.883986 7.80571 0.940494C7.69673 0.997003 7.50299 1.10598 7.3819 1.19075C7.26081 1.27147 7.05495 1.45714 6.92579 1.59841C6.79663 1.73969 6.62307 1.99397 6.53831 2.15946C6.45354 2.32495 6.3486 2.57117 6.30824 2.70437C6.25173 2.886 6.23558 3.07571 6.23558 3.47127C6.23558 3.92737 6.24769 4.03635 6.34053 4.31889C6.40107 4.50457 6.53427 4.77096 6.65132 4.94452C6.7603 5.11001 6.92579 5.3199 7.01459 5.4087L7.18008 5.57015C7.7492 5.28761 7.95102 5.16249 7.99542 5.10598C8.04789 5.03332 8.07211 4.94049 8.06807 4.775C8.06807 4.56107 8.05596 4.52475 7.90258 4.35119C7.81378 4.2422 7.68866 4.04846 7.62408 3.91526C7.55949 3.78206 7.48684 3.55603 7.45859 3.41072C7.43033 3.25734 7.42226 3.04745 7.4384 2.90618C7.45051 2.76895 7.5151 2.55502 7.58371 2.41375C7.65233 2.27248 7.78553 2.0747 7.8824 1.96976C7.97927 1.86078 8.16494 1.7195 8.29411 1.64685C8.4273 1.57823 8.64123 1.49751 8.77443 1.47329C8.95606 1.43696 9.07715 1.43696 9.25879 1.46925C9.39198 1.49347 9.5938 1.55805 9.70278 1.61052C9.8158 1.66703 10.0015 1.8083 10.1185 1.92536C10.2356 2.04241 10.3768 2.23212 10.4334 2.3411C10.4858 2.45411 10.5504 2.65189 10.5746 2.78509C10.5988 2.92233 10.6069 3.12414 10.5908 3.24927C10.5746 3.37036 10.5262 3.57218 10.4818 3.69326C10.4414 3.81435 10.3647 3.98792 10.3123 4.07672C10.2598 4.16551 10.1508 4.31889 10.066 4.4198C9.92074 4.59336 9.91671 4.60951 9.94092 4.82343C9.95303 4.9526 9.9934 5.07772 10.0338 5.11809C10.0741 5.15845 10.2558 5.27147 10.4414 5.37237C10.6392 5.48136 10.8047 5.5419 10.8531 5.52979C10.8975 5.51768 11.0186 5.41274 11.1195 5.29568C11.2204 5.18267 11.3819 4.92031 11.4788 4.72253C11.5756 4.52071 11.6887 4.2422 11.725 4.0969C11.7694 3.93141 11.7936 3.68519 11.7936 3.4309C11.7936 3.17258 11.7694 2.93444 11.725 2.76491C11.6846 2.6196 11.5676 2.3411 11.4667 2.13928C11.3294 1.87692 11.2003 1.69932 10.9944 1.49347C10.837 1.34009 10.6029 1.14635 10.4697 1.06966C10.3365 0.992966 10.0822 0.875913 9.9046 0.815368C9.727 0.750787 9.44446 0.690242 9.27897 0.674097C9.10944 0.657952 8.85515 0.657952 8.71388 0.670061C8.56857 0.686206 8.35061 0.726569 8.22952 0.766932ZM8.44345 2.31284C8.3708 2.36128 8.26181 2.48641 8.20127 2.59539C8.1044 2.75684 8.08825 2.82949 8.08825 3.08782C8.08825 3.32596 8.10843 3.43898 8.1932 3.61254C8.24971 3.73363 8.36676 3.91526 8.45556 4.01213C8.54032 4.10901 8.6493 4.20588 8.6937 4.2301C8.7381 4.25431 8.83901 4.2866 8.9157 4.30275C8.99239 4.31889 9.11751 4.31486 9.19017 4.29468C9.25879 4.2745 9.39602 4.18973 9.49289 4.10093C9.58573 4.01617 9.71893 3.83857 9.78754 3.70941C9.8602 3.57621 9.93689 3.38247 9.95707 3.26945C9.98532 3.13625 9.98936 3.00709 9.96111 2.89811C9.94092 2.80124 9.90056 2.67611 9.86827 2.61557C9.83598 2.55099 9.75929 2.45411 9.69471 2.39357C9.63416 2.33302 9.50097 2.24826 9.40006 2.20386C9.29915 2.15946 9.1377 2.12314 9.03679 2.12314C8.93588 2.12314 8.79057 2.14332 8.71388 2.17157C8.63719 2.19983 8.51207 2.26441 8.44345 2.31284ZM14.0822 6.01819C14.2921 6.03029 14.5343 6.05451 14.619 6.07469C14.7038 6.09891 14.8047 6.16349 14.8491 6.22807C14.9096 6.30476 14.9339 6.3976 14.9298 6.55098C14.9298 6.664 14.946 6.7972 14.9702 6.8416C14.9904 6.88599 15.0267 6.92232 15.0509 6.92232C15.0711 6.92232 15.1922 6.83352 15.3133 6.72051C15.4424 6.60345 15.5716 6.51869 15.6281 6.51869C15.6765 6.51869 15.7815 6.55905 15.8582 6.60345C15.9349 6.65189 16.0882 6.7649 16.1972 6.85774C16.3102 6.94654 16.5121 7.16854 16.6533 7.34614C16.839 7.58428 16.9076 7.70133 16.9076 7.79013C16.9036 7.87489 16.8551 7.96773 16.726 8.10496C16.6251 8.20991 16.5443 8.32292 16.5443 8.35522C16.5443 8.38751 16.5726 8.42383 16.6049 8.43594C16.6372 8.44805 16.7744 8.45612 16.9076 8.45612C17.1014 8.45612 17.17 8.47227 17.2507 8.54896C17.3355 8.62161 17.3678 8.71041 17.4202 9.02121C17.4808 9.35219 17.4808 9.45309 17.4364 9.74775C17.4081 9.93745 17.3597 10.1393 17.3274 10.2039C17.2951 10.2644 17.2467 10.3249 17.2224 10.3411C17.1942 10.3572 17.0408 10.3814 16.8794 10.3936C16.7219 10.4057 16.5807 10.4218 16.5645 10.4339C16.5524 10.446 16.5524 10.4985 16.5686 10.555C16.5847 10.6115 16.6775 10.7326 16.7744 10.8295C16.8753 10.9264 16.948 11.0353 16.948 11.0918C16.948 11.1403 16.8915 11.2614 16.8228 11.3623C16.7542 11.4632 16.6049 11.6408 16.4878 11.7619C16.3748 11.8789 16.173 12.0565 16.0398 12.1574C15.8743 12.2785 15.7613 12.335 15.6765 12.331C15.5918 12.331 15.4989 12.2745 15.3657 12.1494C15.2568 12.0484 15.1437 11.9677 15.1114 11.9677C15.0792 11.9677 15.0428 12.0081 15.0307 12.0606C15.0186 12.109 15.0105 12.2462 15.0105 12.3633C15.0105 12.5247 14.9904 12.5974 14.9217 12.6781C14.8693 12.7346 14.7563 12.7952 14.6675 12.8153C14.5787 12.8355 14.3768 12.8638 14.2235 12.8759C14.066 12.892 13.8118 12.8961 13.6584 12.8799C13.4646 12.8638 13.3314 12.8275 13.2346 12.7629C13.0973 12.6741 13.0933 12.662 13.0731 12.3633C13.061 12.1938 13.0408 12.0444 13.0247 12.0323C13.0045 12.0202 12.9439 12.0323 12.8834 12.0646C12.8188 12.0969 12.7219 12.1776 12.6614 12.2462C12.5968 12.3148 12.4999 12.3835 12.4394 12.3956C12.3627 12.4158 12.278 12.3956 12.1892 12.3471C12.1125 12.3027 11.9147 12.1413 11.7492 11.9879C11.5797 11.8305 11.3657 11.5964 11.2689 11.4632C11.172 11.33 11.0913 11.1806 11.0953 11.1322C11.0953 11.0757 11.176 10.9627 11.2971 10.8497C11.4061 10.7407 11.4949 10.6236 11.4989 10.5873C11.4989 10.5429 11.4626 10.5066 11.4101 10.4945C11.3577 10.4824 11.2204 10.4743 11.1074 10.4743C10.9419 10.4743 10.8693 10.4541 10.7926 10.3855C10.7159 10.3169 10.6796 10.2281 10.6513 10.0505C10.6271 9.91727 10.611 9.66298 10.611 9.48538C10.611 9.30779 10.6311 9.0535 10.6513 8.9203C10.6796 8.76288 10.724 8.64583 10.7845 8.58529C10.8572 8.51263 10.9177 8.49649 11.0953 8.49649C11.2245 8.49649 11.3536 8.47227 11.398 8.43998C11.4788 8.38751 11.4788 8.38347 11.4021 8.27045C11.3577 8.20587 11.2608 8.09689 11.1841 8.03231C11.0993 7.95562 11.0428 7.87086 11.0428 7.81031C11.0428 7.7538 11.0953 7.6206 11.1639 7.50759C11.2325 7.39861 11.4384 7.1645 11.616 6.99498C11.7976 6.82141 12.0156 6.64382 12.1044 6.59942C12.1932 6.55502 12.2941 6.51869 12.3264 6.51869C12.3587 6.51869 12.4677 6.59942 12.5686 6.70032C12.6695 6.80123 12.7865 6.88196 12.8309 6.88196C12.8955 6.88196 12.9157 6.84967 12.9318 6.73261C12.9439 6.64785 12.952 6.50658 12.948 6.41778C12.9439 6.28862 12.9641 6.23615 13.0489 6.16753C13.1054 6.11506 13.2305 6.06662 13.3274 6.05451C13.4202 6.0424 13.5413 6.02626 13.5978 6.01819C13.6543 6.00608 13.8723 6.01011 14.0822 6.01819ZM13.6705 6.83756C13.6745 6.89407 13.6422 7.01516 13.6019 7.10396C13.5615 7.19275 13.4848 7.30577 13.4323 7.35421C13.3799 7.40264 13.2628 7.47126 13.174 7.50759C13.065 7.55199 12.9641 7.56813 12.8713 7.54795C12.7946 7.53181 12.6735 7.49144 12.6089 7.45915C12.5403 7.42283 12.4515 7.36228 12.4071 7.32192C12.3264 7.24926 12.3224 7.24926 12.0923 7.47933L11.8582 7.7094C12.0842 8.08478 12.1286 8.20587 12.1367 8.35118C12.1448 8.49245 12.1246 8.60143 12.0761 8.6983C12.0358 8.77499 11.9308 8.88801 11.842 8.95259C11.7532 9.01314 11.5999 9.07772 11.503 9.09386C11.3657 9.11404 11.3173 9.14633 11.2891 9.22302C11.2689 9.27953 11.2568 9.4208 11.2648 9.53786C11.2729 9.67106 11.3012 9.76389 11.3375 9.78811C11.3698 9.80829 11.4626 9.83251 11.5393 9.84462C11.616 9.85673 11.7532 9.91727 11.842 9.98185C11.9308 10.0424 12.0358 10.1635 12.0761 10.2442C12.1125 10.3249 12.1448 10.4622 12.1448 10.5469C12.1448 10.6277 12.1044 10.777 12.06 10.8779C12.0156 10.9788 11.947 11.0918 11.9106 11.1322C11.8461 11.2008 11.8541 11.217 12.064 11.4269L12.286 11.6529C12.6533 11.3986 12.7058 11.3825 12.9439 11.3825C13.17 11.3825 13.2386 11.3986 13.3516 11.4834C13.4323 11.5399 13.5332 11.6731 13.5857 11.7861C13.6342 11.8991 13.6786 12.0363 13.6786 12.1009C13.6786 12.1978 13.6947 12.2139 13.8521 12.2341C13.945 12.2462 14.0983 12.2462 14.1952 12.2341C14.3526 12.2099 14.3647 12.2018 14.3889 12.0606C14.4051 11.9758 14.4455 11.8426 14.4858 11.7659C14.5221 11.6892 14.6109 11.5762 14.6836 11.5157C14.7522 11.4511 14.8572 11.3905 14.9217 11.3784C14.9823 11.3623 15.1236 11.3623 15.2325 11.3744C15.3698 11.3905 15.4868 11.4349 15.5958 11.5157L15.7573 11.6367L16.2416 11.1605C16.1084 11.0192 16.0398 10.9183 16.0035 10.8497C15.9671 10.777 15.9349 10.6317 15.9349 10.5268C15.9308 10.4178 15.955 10.2765 15.9914 10.2119C16.0237 10.1433 16.0842 10.0585 16.1246 10.0222C16.169 9.98589 16.282 9.91727 16.3829 9.87287C16.4838 9.82847 16.613 9.78811 16.6775 9.78811C16.7744 9.78811 16.7865 9.77196 16.7986 9.63877C16.8027 9.554 16.8027 9.40466 16.7946 9.30375L16.7825 9.12212C16.4273 9.01717 16.2618 8.93645 16.1851 8.87186C16.1125 8.81132 16.0237 8.70234 15.9873 8.63776C15.947 8.55299 15.9349 8.45209 15.951 8.29467C15.9671 8.14936 16.0196 8.01213 16.0963 7.89104L16.2134 7.7094C15.7774 7.26137 15.7532 7.24523 15.6967 7.30981C15.6644 7.34614 15.5716 7.40668 15.4949 7.44704C15.4182 7.48741 15.2971 7.53181 15.2325 7.54391C15.1639 7.56006 15.0388 7.55602 14.95 7.53181C14.8491 7.50759 14.7361 7.43493 14.6432 7.33806C14.5665 7.2533 14.4818 7.1201 14.4576 7.04341C14.4333 6.96672 14.4011 6.8537 14.3889 6.79316C14.3647 6.68014 14.3607 6.68014 14.0499 6.68014C13.8763 6.68014 13.7189 6.69225 13.6987 6.7084C13.6786 6.72051 13.6664 6.78105 13.6705 6.83756ZM3.97121 6.03837C4.35869 6.03433 4.53225 6.05048 4.83901 6.1312C5.0489 6.18367 5.33952 6.28458 5.48483 6.35724C5.63013 6.42989 5.85617 6.56713 5.98937 6.65996C6.12256 6.75683 6.34053 6.94654 6.47776 7.08781C6.615 7.22908 6.80067 7.46319 6.8935 7.6085C6.98634 7.7538 7.1155 7.99598 7.17604 8.1534C7.24062 8.30678 7.32135 8.57721 7.35768 8.75078C7.39401 8.9203 7.42226 9.25531 7.42226 9.49749C7.42226 9.79618 7.39401 10.0343 7.3375 10.2725C7.2931 10.4622 7.19623 10.7407 7.12357 10.8981C7.05496 11.0515 6.93387 11.2735 6.85717 11.3825C6.78048 11.4955 6.60289 11.7094 6.45758 11.8628C6.31227 12.0121 6.09027 12.2059 5.96918 12.2906C5.84809 12.3714 5.63821 12.4965 5.50501 12.5651C5.37181 12.6297 5.13367 12.7225 4.98029 12.7709C4.82287 12.8153 4.54436 12.8719 4.35466 12.892C4.14477 12.9163 3.8703 12.9163 3.6483 12.8961C3.44648 12.8759 3.15587 12.8194 3.00249 12.7709C2.84507 12.7225 2.59078 12.6216 2.4374 12.5449C2.27999 12.4682 2.0257 12.3108 1.87232 12.1897C1.7149 12.0727 1.50501 11.8789 1.40411 11.7619C1.3032 11.6408 1.14982 11.4349 1.06505 11.3017C0.980292 11.1685 0.859203 10.9425 0.802694 10.7972C0.742149 10.6519 0.665459 10.4057 0.629132 10.2523C0.592805 10.0949 0.552442 9.84058 0.540333 9.6872C0.524188 9.52979 0.532261 9.25128 0.560515 9.06157C0.584733 8.87186 0.661423 8.55299 0.726004 8.35522C0.794621 8.1534 0.895529 7.91122 0.952038 7.81031C1.00855 7.7094 1.15789 7.49548 1.28302 7.32999C1.40814 7.1645 1.64629 6.92232 1.81177 6.78912C1.97726 6.65592 2.25173 6.48236 2.41722 6.3976C2.58271 6.31687 2.81278 6.21597 2.92176 6.17964C3.03478 6.14331 3.2043 6.09891 3.30521 6.07873C3.40612 6.05855 3.70481 6.0424 3.97121 6.03837ZM3.72095 7.3865C3.6927 7.44301 3.66848 7.51162 3.66848 7.53988C3.66848 7.5641 3.60794 7.6206 3.52721 7.66097C3.45052 7.6973 3.32136 7.79013 3.24063 7.86278C3.15991 7.9314 3.04689 8.08478 2.99442 8.19376C2.93791 8.30678 2.88544 8.47631 2.87333 8.57721C2.86122 8.68619 2.87736 8.84765 2.91369 8.98085C2.95002 9.10193 3.02671 9.26742 3.08322 9.34411C3.13972 9.4208 3.26485 9.53786 3.35768 9.5984C3.45052 9.65895 3.59179 9.72756 3.66848 9.74775C3.74517 9.76793 3.90259 9.79618 4.01157 9.81233C4.16899 9.83251 4.24164 9.86884 4.34658 9.97378C4.45556 10.0908 4.47575 10.1393 4.47575 10.3128C4.47575 10.4702 4.45153 10.5429 4.37484 10.6357C4.31833 10.7044 4.20935 10.773 4.12459 10.7932C4.03175 10.8174 3.91873 10.8174 3.84204 10.7932C3.76939 10.773 3.66445 10.7003 3.60794 10.6357C3.55143 10.5671 3.49896 10.446 3.48281 10.3653C3.4707 10.2805 3.44648 10.1837 3.43034 10.1514C3.41419 10.1191 3.34961 10.0666 3.2931 10.0424C3.2043 9.998 3.15991 10.002 3.04285 10.0505C2.94194 10.0949 2.89351 10.1433 2.87736 10.224C2.86525 10.2846 2.86929 10.4057 2.88544 10.4945C2.90158 10.5833 2.93791 10.7165 2.9702 10.7891C2.99845 10.8577 3.09129 10.995 3.17605 11.0878C3.25678 11.1766 3.40208 11.2856 3.49896 11.33C3.59179 11.3703 3.66848 11.4269 3.66848 11.4551C3.66445 11.4793 3.70077 11.552 3.74921 11.6166C3.80975 11.7013 3.86222 11.7255 3.98331 11.7255C4.07615 11.7296 4.16091 11.7013 4.20128 11.6569C4.24164 11.6166 4.26989 11.5479 4.26989 11.5035C4.26989 11.447 4.3264 11.3986 4.43942 11.3421C4.53225 11.2977 4.68563 11.1766 4.78251 11.0717C4.87938 10.9627 4.98836 10.8093 5.02468 10.7286C5.06101 10.6398 5.08927 10.4622 5.08927 10.3128C5.0933 10.1675 5.06505 9.98589 5.03276 9.9092C5.00047 9.83251 4.92378 9.69931 4.85516 9.61051C4.79058 9.52575 4.66545 9.41273 4.57665 9.36026C4.48382 9.30375 4.26586 9.23513 4.07211 9.20284C3.7815 9.15037 3.71288 9.12212 3.62005 9.02121C3.55546 8.95663 3.49492 8.83957 3.48281 8.77096C3.4707 8.69023 3.48281 8.57721 3.52317 8.48841C3.5595 8.40365 3.62812 8.30678 3.68059 8.27449C3.72903 8.2422 3.83397 8.20183 3.91066 8.18973C4.0035 8.17358 4.10037 8.18569 4.1932 8.23009C4.26989 8.26238 4.36273 8.34311 4.39906 8.40365C4.43538 8.46823 4.47575 8.59336 4.49189 8.69023C4.50804 8.80325 4.54705 8.87994 4.60894 8.9203C4.65738 8.95259 4.74214 8.98085 4.79865 8.98488C4.85516 8.98488 4.94396 8.94855 5.00047 8.90415C5.08523 8.83957 5.10138 8.79517 5.09734 8.62969C5.0933 8.52474 5.05294 8.34714 5.0045 8.23413C4.95607 8.12514 4.8592 7.97176 4.78654 7.89911C4.71389 7.82242 4.57262 7.71748 4.46767 7.665C4.32237 7.59235 4.27393 7.54391 4.27393 7.47933C4.27797 7.42686 4.24568 7.35824 4.20531 7.32192C4.16495 7.28559 4.09633 7.24523 4.05193 7.23312C4.00753 7.22101 3.92681 7.22908 3.8703 7.24926C3.81379 7.26541 3.74517 7.32999 3.72095 7.3865ZM1.84406 13.7074C2.59078 13.7033 2.84507 13.7154 2.93387 13.7598C2.99442 13.7881 3.05496 13.8446 3.07514 13.8809C3.09129 13.9173 3.1034 14.0464 3.1034 14.1675C3.1034 14.3169 3.11954 14.3895 3.15587 14.3895C3.18009 14.3895 3.84204 14.2805 4.61702 14.1473C5.39603 14.0141 6.17504 13.8769 6.35263 13.8446C6.53023 13.8123 6.81278 13.776 6.97826 13.7639C7.14375 13.7477 7.77746 13.7558 8.3829 13.78C9.36373 13.8204 9.51307 13.8365 9.79562 13.9253C9.96514 13.9778 10.2235 14.0989 10.3688 14.1917C10.5141 14.2846 10.728 14.4622 10.8491 14.5873C10.9863 14.7326 11.1276 14.9425 11.2406 15.1766C11.3375 15.3744 11.4182 15.5722 11.4182 15.6125C11.4182 15.6488 11.4263 15.6811 11.4384 15.6811C11.4505 15.6811 12.4636 15.3219 13.6907 14.886C15.7694 14.1433 15.9389 14.0908 16.2013 14.0908C16.4152 14.0908 16.5363 14.115 16.7018 14.1877C16.835 14.2482 16.9964 14.3734 17.1175 14.5025C17.2588 14.6559 17.3274 14.777 17.3758 14.9465C17.4243 15.108 17.4323 15.2452 17.4162 15.3986C17.4 15.5197 17.3556 15.6932 17.3153 15.782C17.279 15.8708 17.1821 16.0081 17.1054 16.0848C17.0085 16.1816 15.9106 16.7871 13.5575 18.0303C10.9702 19.3986 10.0741 19.8547 9.84405 19.9152C9.65031 19.9717 9.42024 20 9.21035 20C8.95606 20 8.75021 19.9677 8.34254 19.8547C8.04789 19.778 7.01459 19.5116 6.04991 19.2654C4.35869 18.8335 4.27797 18.8174 3.85012 18.8133C3.6039 18.8133 3.3375 18.8254 3.1034 18.8698V19.1927C3.1034 19.4793 3.09129 19.5278 2.90562 19.7175H1.87232C1.12964 19.7175 0.814803 19.7053 0.742149 19.669C0.685641 19.6408 0.625096 19.5762 0.600878 19.5278C0.57666 19.4672 0.560515 18.446 0.560515 16.7023C0.560515 14.2523 0.568587 13.9576 0.625096 13.8729C0.661423 13.8204 0.73004 13.7639 0.778476 13.7437C0.822876 13.7235 1.3032 13.7074 1.84406 13.7074ZM1.20633 19.1524H2.45759V14.3895H1.20633V19.1524ZM14.062 7.86278C14.3728 7.87086 14.4656 7.89104 14.6876 7.99195C14.8329 8.06056 15.0388 8.1978 15.1437 8.29467C15.2568 8.39962 15.39 8.58125 15.4586 8.71848C15.5232 8.85168 15.5958 9.07368 15.616 9.21092C15.6442 9.38044 15.6442 9.54997 15.616 9.71546C15.5958 9.85673 15.5232 10.0787 15.4586 10.2119C15.39 10.3532 15.2527 10.5348 15.1357 10.6438C15.0227 10.7528 14.8087 10.8981 14.6594 10.9667C14.4051 11.0878 14.3526 11.0999 13.9813 11.0999C13.614 11.0999 13.5534 11.0878 13.3153 10.9748C13.1659 10.9062 12.9682 10.7649 12.8551 10.6519C12.7421 10.5389 12.6009 10.3411 12.5322 10.1917C12.4152 9.94956 12.4071 9.89709 12.4071 9.48538C12.4071 9.08579 12.4192 9.02121 12.5161 8.81939C12.5766 8.6983 12.6937 8.51667 12.7785 8.4198C12.8632 8.32292 13.0126 8.18569 13.1135 8.12111C13.2144 8.05249 13.3879 7.96369 13.4969 7.92333C13.6463 7.87086 13.7956 7.85471 14.062 7.86278Z" fill="#FE524D"/>
</svg>
