<svg width="41" height="42" viewBox="0 0 41 42" fill="none" xmlns="http://www.w3.org/2000/svg">
<circle opacity="0.1" cx="20.5" cy="21" r="20.5" fill="#FE524D"/>
<path fill-rule="evenodd" clip-rule="evenodd" d="M19.7226 11.501C20.4141 11.4971 20.461 11.501 20.5938 11.583C20.672 11.6338 20.7696 11.7393 20.8087 11.8174C20.8517 11.8995 20.8829 12.0167 20.8829 12.0831C20.8829 12.1456 20.8478 12.2706 20.8048 12.3566C20.7527 12.4608 20.6746 12.5389 20.5704 12.591C20.4336 12.6574 20.336 12.6691 19.8164 12.6691C19.3046 12.6691 19.1991 12.6809 19.0545 12.7473C18.9451 12.802 18.8592 12.8801 18.7928 12.9934C18.7342 13.095 18.6951 13.22 18.6951 13.3255C18.6951 13.4153 18.7264 13.556 18.7615 13.6341C18.8006 13.7123 18.8826 13.8177 18.9491 13.8685C19.035 13.9349 19.1483 13.9701 19.3593 13.9935C19.5195 14.0131 19.7304 14.0521 19.8281 14.0756C19.9258 14.1029 20.1094 14.1772 20.2383 14.2436C20.3633 14.3139 20.5509 14.4467 20.6485 14.5444C20.7462 14.6421 20.879 14.8179 20.9493 14.9351C21.0158 15.0523 21.1017 15.2633 21.133 15.4039C21.1681 15.5446 21.1955 15.7399 21.1955 15.8454C21.1955 15.947 21.1759 16.1228 21.1525 16.2322C21.1252 16.3454 21.0626 16.5369 21.004 16.6541C20.9493 16.7713 20.797 16.9784 20.6681 17.1151C20.504 17.2909 20.3516 17.4042 20.1602 17.498C19.957 17.5956 19.7968 17.6425 19.5351 17.6738C19.3397 17.6972 18.9686 17.7128 18.7068 17.705C18.3005 17.6933 18.2185 17.6777 18.1208 17.6074C18.0622 17.5644 17.9724 17.4667 17.9216 17.3925C17.8669 17.3065 17.8356 17.201 17.8356 17.1034C17.8356 17.0174 17.8708 16.8885 17.9137 16.8182C17.9567 16.7518 18.0505 16.658 18.1169 16.615C18.2302 16.5486 18.3162 16.5369 18.7928 16.5369C19.0936 16.5369 19.4101 16.5173 19.496 16.4978C19.582 16.4783 19.6953 16.4275 19.75 16.3884C19.8046 16.3494 19.8867 16.2478 19.9336 16.1618C19.9844 16.0798 20.0234 15.943 20.0234 15.861C20.0234 15.7829 20.0039 15.6696 19.9805 15.6071C19.957 15.5485 19.9023 15.4586 19.8554 15.4078C19.8086 15.357 19.6992 15.2828 19.6132 15.2437C19.5273 15.2047 19.3788 15.1695 19.2811 15.1695C19.1835 15.1695 19.0272 15.15 18.9295 15.1265C18.8319 15.1031 18.656 15.0406 18.5388 14.9859C18.4138 14.9234 18.2185 14.7788 18.0661 14.6264C17.9137 14.4741 17.7692 14.2787 17.7067 14.1537C17.652 14.0365 17.5895 13.8607 17.566 13.763C17.5426 13.6654 17.5231 13.4739 17.5231 13.3333C17.5231 13.1926 17.5504 12.9817 17.5856 12.8645C17.6207 12.7473 17.6911 12.5715 17.7379 12.4738C17.7887 12.3761 17.8942 12.2198 17.9802 12.1261C18.0622 12.0323 18.2068 11.8995 18.3044 11.8331C18.4021 11.7667 18.5935 11.6651 18.7342 11.6104C18.9803 11.5049 19.0155 11.501 19.7187 11.501H19.7226ZM23.7388 11.501C24.0084 11.4971 24.1178 11.5166 24.3248 11.5948C24.4655 11.6495 24.6491 11.7354 24.7351 11.7862C24.821 11.837 24.9851 11.9815 25.1023 12.1066C25.2156 12.2355 25.3367 12.3878 25.3719 12.4543C25.4031 12.5168 25.4656 12.6691 25.5086 12.7863C25.5789 12.9817 25.5867 13.1223 25.6063 14.3295C25.6141 15.1734 25.6063 15.7868 25.5789 16.0095C25.5477 16.2673 25.5008 16.4353 25.4031 16.6346C25.3328 16.783 25.2117 16.9784 25.1375 17.0643C25.0632 17.1503 24.907 17.2831 24.7898 17.3612C24.6725 17.4433 24.4655 17.5448 24.3248 17.5917C24.149 17.6503 23.9771 17.6738 23.7584 17.6738C23.5708 17.6738 23.352 17.6464 23.2114 17.6034C23.0825 17.5644 22.8832 17.4706 22.766 17.3964C22.6488 17.3222 22.4769 17.1698 22.3792 17.0643C22.2855 16.9549 22.1566 16.7635 22.098 16.6346C22.0354 16.5056 21.969 16.2947 21.9456 16.1657C21.9182 16.0251 21.9026 15.3922 21.9026 14.5835C21.9026 13.5286 21.9182 13.177 21.9651 12.9621C21.9964 12.8098 22.0784 12.5871 22.1487 12.4582C22.2191 12.3331 22.3519 12.1495 22.4496 12.0519C22.5472 11.9542 22.6957 11.8331 22.7816 11.7784C22.8676 11.7237 23.0434 11.6416 23.1723 11.5909C23.3403 11.5283 23.4966 11.5049 23.7388 11.501ZM23.2778 12.8762C23.2309 12.9231 23.1606 13.0325 23.1294 13.1184C23.0825 13.2473 23.0747 13.5013 23.0825 14.6655L23.0942 16.0563C23.2505 16.2947 23.3638 16.3923 23.4497 16.4353C23.5318 16.4744 23.6724 16.5056 23.7584 16.5056C23.8443 16.5056 23.9654 16.4783 24.0318 16.447C24.0943 16.4158 24.1881 16.3454 24.2311 16.2947C24.278 16.2478 24.3405 16.1618 24.3678 16.1071C24.4108 16.0329 24.4264 15.7321 24.4342 14.7983C24.442 14.1303 24.4381 13.4818 24.4264 13.3528C24.4108 13.2083 24.3678 13.0676 24.3131 12.9817C24.2662 12.9074 24.149 12.8059 24.0514 12.7551C23.9537 12.7082 23.813 12.6691 23.7388 12.6691C23.6646 12.6691 23.5474 12.6965 23.4849 12.7316C23.4185 12.7629 23.3286 12.8293 23.2778 12.8762ZM28.5129 11.501C29.2123 11.4971 29.2552 11.501 29.3842 11.583C29.4584 11.6338 29.5522 11.7354 29.5951 11.8096C29.6381 11.8839 29.6733 12.0089 29.6733 12.0831C29.6733 12.1573 29.6342 12.2863 29.5873 12.3722C29.5365 12.4582 29.4389 12.5519 29.3529 12.5949C29.2318 12.6574 29.1185 12.6691 28.6106 12.6691C28.0637 12.6691 28.0051 12.673 27.841 12.759C27.7277 12.8176 27.6339 12.9074 27.5792 13.0051C27.5245 13.095 27.4894 13.2239 27.4894 13.3216C27.4894 13.4153 27.5206 13.556 27.5558 13.6341C27.5948 13.7123 27.6769 13.8177 27.7433 13.8685C27.8293 13.9349 27.9426 13.9701 28.1535 13.9935C28.3137 14.0131 28.5247 14.0521 28.6223 14.0756C28.72 14.1029 28.9036 14.1772 29.0287 14.2436C29.1537 14.3139 29.3529 14.4663 29.4701 14.5835C29.5834 14.7007 29.728 14.9038 29.7905 15.0328C29.853 15.1617 29.9233 15.3609 29.9468 15.4703C29.9702 15.5836 29.9897 15.7594 29.9897 15.861C29.9897 15.9665 29.9624 16.154 29.9272 16.2829C29.896 16.4119 29.81 16.6228 29.7436 16.7479C29.6733 16.8768 29.517 17.0721 29.3842 17.1932C29.2552 17.3104 29.0873 17.4355 29.013 17.4745C28.9388 17.5097 28.7786 17.5761 28.6614 17.6152C28.4856 17.6738 28.3215 17.6855 27.7355 17.6894C27.0752 17.6894 27.0205 17.6855 26.9151 17.6074C26.8565 17.5644 26.7666 17.4667 26.7158 17.3925C26.6611 17.3065 26.6299 17.201 26.6299 17.1034C26.6299 17.0174 26.665 16.8885 26.708 16.8182C26.751 16.7518 26.8447 16.658 26.9112 16.615C27.0245 16.5486 27.1104 16.5369 27.587 16.5369C27.8879 16.5369 28.2043 16.5173 28.2903 16.4978C28.3762 16.4783 28.4895 16.4275 28.5442 16.3884C28.5989 16.3494 28.6809 16.24 28.7317 16.1423C28.7981 16.0173 28.8177 15.9196 28.8099 15.7907C28.8021 15.6657 28.763 15.568 28.6809 15.4625C28.6145 15.3805 28.4934 15.2789 28.4075 15.2398C28.3215 15.2008 28.1731 15.1695 28.0754 15.1695C27.9777 15.1695 27.7941 15.1421 27.6652 15.1109C27.5362 15.0757 27.337 14.9937 27.2237 14.9234C27.1065 14.853 26.9307 14.7085 26.8291 14.603C26.7275 14.4936 26.5986 14.3295 26.54 14.2319C26.4853 14.1342 26.4072 13.9428 26.372 13.8021C26.329 13.6263 26.3134 13.4466 26.3251 13.2161C26.3408 12.9348 26.3642 12.8371 26.4853 12.5793C26.5634 12.4152 26.6963 12.2042 26.7822 12.1105C26.8643 12.0206 27.001 11.8995 27.0831 11.8409C27.169 11.7823 27.3565 11.6807 27.5089 11.6182C27.7785 11.5049 27.7941 11.501 28.5129 11.501ZM13.7764 14.646C13.8507 14.6577 13.964 14.6968 14.0265 14.7319C14.1085 14.7788 14.593 15.5211 15.7728 17.4159C16.6714 18.8536 17.4176 20.0843 17.4293 20.1507C17.441 20.2132 17.4293 20.3304 17.4098 20.4046C17.3785 20.5062 17.1089 20.7992 16.3393 21.5767C15.4564 22.4596 15.2884 22.6471 15.1985 22.8464C15.1126 23.0339 15.0891 23.1394 15.0891 23.3738C15.0852 23.6278 15.1008 23.702 15.2102 23.9208C15.3157 24.1356 15.4837 24.3232 16.3432 25.1788C17.1988 26.0305 17.3863 26.1984 17.5856 26.2922C17.777 26.3782 17.8747 26.3977 18.113 26.3977C18.3474 26.3977 18.4529 26.3743 18.6404 26.2883C18.8397 26.1984 19.0311 26.0265 19.9297 25.1358C20.8048 24.2646 21.0079 24.0849 21.1212 24.0614C21.1955 24.0497 21.3088 24.0536 21.3752 24.0692C21.4377 24.0888 22.6449 24.8193 24.0514 25.6984C25.4578 26.5774 26.6494 27.3392 26.6963 27.3861C26.7471 27.4369 26.8057 27.5502 26.8291 27.6401C26.8604 27.7729 26.8565 27.8393 26.8096 27.9643C26.7627 28.0815 26.4189 28.4488 25.4305 29.4333C24.6413 30.2147 24.0162 30.8046 23.8756 30.8944C23.7466 30.9765 23.5161 31.1015 23.3677 31.1718C23.2153 31.2422 22.9223 31.3437 22.7113 31.3984C22.3753 31.4883 22.2581 31.5 21.6877 31.5C21.3322 31.5 20.9259 31.4844 20.7774 31.4609C20.6329 31.4414 20.2774 31.3867 19.9883 31.3437C19.6992 31.3008 19.2499 31.2109 18.992 31.1445C18.7342 31.082 18.3201 30.9609 18.0739 30.8788C17.8278 30.7929 17.4137 30.6366 17.1558 30.5272C16.898 30.4139 16.5268 30.2381 16.3354 30.1365C16.1401 30.0349 15.8236 29.8513 15.6322 29.7302C15.4368 29.613 15.136 29.4138 14.9602 29.2848C14.7883 29.1598 14.4718 28.9137 14.257 28.7379C14.046 28.566 13.6514 28.1948 13.3818 27.9174C13.1123 27.644 12.745 27.2338 12.5653 27.0072C12.3856 26.7806 12.1395 26.4485 12.0184 26.2649C11.8972 26.0812 11.6941 25.757 11.5691 25.5421C11.4401 25.3272 11.2565 24.9756 11.155 24.7607C11.0534 24.5459 10.8971 24.1903 10.8112 23.9677C10.7213 23.7489 10.5806 23.3347 10.4947 23.0496C10.4087 22.7683 10.2955 22.3229 10.2408 22.065C10.19 21.8072 10.1157 21.3774 10.0806 21.1079C10.0337 20.7836 10.0142 20.3499 10.0103 19.8186C10.0103 19.1232 10.022 18.9786 10.0923 18.7247C10.1353 18.5645 10.2329 18.2989 10.3072 18.1387C10.3814 17.9785 10.5064 17.7402 10.5924 17.6113C10.6822 17.4706 11.2643 16.8494 12.034 16.072C12.8779 15.2242 13.3818 14.7437 13.4834 14.6968C13.5889 14.646 13.6827 14.6304 13.7764 14.646ZM11.4988 18.3731C11.4167 18.5137 11.3112 18.7481 11.2643 18.9005C11.1862 19.1466 11.1784 19.2482 11.1823 19.8967C11.1862 20.4085 11.2136 20.7758 11.2722 21.1665C11.3151 21.4673 11.4128 21.9517 11.487 22.2408C11.5613 22.5299 11.7019 22.9949 11.8035 23.2761C11.9051 23.5535 12.1082 24.0302 12.2567 24.331C12.4051 24.6318 12.6474 25.0694 12.7958 25.3077C12.9443 25.5421 13.2217 25.9406 13.4092 26.1867C13.6006 26.4329 14.003 26.8821 14.3038 27.183C14.6047 27.4838 15.0344 27.8745 15.261 28.0503C15.4876 28.2261 15.8978 28.5113 16.1791 28.6871C16.4565 28.8629 16.898 29.109 17.1558 29.234C17.4137 29.3591 17.7887 29.5231 17.9841 29.6013C18.1833 29.6794 18.5623 29.8044 18.824 29.8826C19.0897 29.9607 19.5077 30.0662 19.7539 30.1131C20 30.1639 20.3711 30.2264 20.5743 30.2537C20.7774 30.2811 21.2541 30.3045 21.6291 30.3045C22.2308 30.3084 22.3441 30.2967 22.5863 30.2225C22.7348 30.1756 22.9731 30.0701 23.1137 29.9881C23.2973 29.8787 23.6333 29.5778 24.3444 28.8746C25.2 28.0307 25.3133 27.9018 25.2625 27.8549C25.2312 27.8237 24.3522 27.2689 23.3091 26.6165C22.2659 25.964 21.3908 25.421 21.3635 25.4093C21.3322 25.3936 20.9728 25.7257 20.4258 26.2649C19.7421 26.9446 19.4843 27.1752 19.3046 27.2689C19.1757 27.3353 18.9881 27.4174 18.8826 27.4525C18.7811 27.4877 18.5623 27.5346 18.3943 27.558C18.1716 27.5893 18.0114 27.5893 17.7809 27.5541C17.609 27.5268 17.3629 27.4682 17.234 27.4213C17.105 27.3705 16.8941 27.265 16.7651 27.183C16.6167 27.0931 16.1361 26.6438 15.472 25.9758C14.7531 25.253 14.3703 24.8428 14.2726 24.6826C14.1984 24.5537 14.0851 24.3075 14.0265 24.1356C13.9444 23.8856 13.921 23.745 13.9171 23.4324C13.9171 23.2175 13.9366 22.9441 13.9679 22.8269C13.9952 22.7097 14.089 22.4635 14.1749 22.2799C14.3273 21.9635 14.3781 21.9009 15.218 21.061C16.0463 20.2249 16.0971 20.1663 16.0541 20.0843C16.0307 20.0335 15.4759 19.1427 14.8235 18.1035C14.171 17.0643 13.6202 16.2048 13.5967 16.197C13.5772 16.1892 13.1279 16.6189 12.6005 17.1503C11.909 17.8535 11.6081 18.1895 11.4988 18.3731Z" fill="#FE524D"/>
</svg>
