<svg width="269" height="18" viewBox="0 0 269 18" fill="none" xmlns="http://www.w3.org/2000/svg">
<rect x="0.93335" y="8" width="262" height="2" rx="1" fill="#D3DCE6"/>
<circle cx="9.3" cy="8.8" r="8.43333" fill="#FE524D" stroke="#F9FAFC" stroke-width="0.733333"/>
<path d="M8.22266 6.92019V5.78499H10.3435V12.2002H9.07626V6.92019H8.22266Z" fill="white"/>
<circle cx="71.9001" cy="8.8" r="8.43333" fill="#FE524D" stroke="#F9FAFC" stroke-width="0.733333"/>
<path d="M70.4271 10.8098C70.9903 10.3405 71.4391 9.95033 71.7735 9.6394C72.1079 9.3226 72.3866 8.99406 72.6095 8.65379C72.8325 8.31353 72.9439 7.97913 72.9439 7.6506C72.9439 7.3514 72.8735 7.11673 72.7327 6.9466C72.5919 6.77646 72.3749 6.69139 72.0815 6.69139C71.7882 6.69139 71.5623 6.79113 71.4039 6.9906C71.2455 7.1842 71.1634 7.45113 71.1575 7.79139H69.9607C69.9842 7.08739 70.1925 6.55353 70.5855 6.18979C70.9845 5.82606 71.489 5.64419 72.0991 5.64419C72.7679 5.64419 73.2813 5.82313 73.6391 6.181C73.997 6.533 74.1759 6.9994 74.1759 7.58019C74.1759 8.03779 74.0527 8.47486 73.8063 8.8914C73.5599 9.30793 73.2783 9.67166 72.9615 9.9826C72.6447 10.2877 72.2311 10.6573 71.7207 11.0914H74.3167V12.1122H69.9695V11.197L70.4271 10.8098Z" fill="white"/>
<circle cx="134.5" cy="8.8" r="8.43333" fill="#FE524D" stroke="#F9FAFC" stroke-width="0.733333"/>
<path d="M132.55 7.4746C132.579 6.88793 132.785 6.43619 133.166 6.11939C133.553 5.79673 134.061 5.63539 134.688 5.63539C135.117 5.63539 135.483 5.71166 135.788 5.86419C136.093 6.01086 136.322 6.21326 136.475 6.47139C136.633 6.72366 136.712 7.01113 136.712 7.33379C136.712 7.7034 136.616 8.01726 136.422 8.2754C136.234 8.52766 136.008 8.6978 135.744 8.7858V8.821C136.085 8.9266 136.349 9.11433 136.536 9.3842C136.73 9.65406 136.827 10.0002 136.827 10.4226C136.827 10.7746 136.745 11.0885 136.58 11.3642C136.422 11.6399 136.184 11.857 135.868 12.0154C135.557 12.1679 135.181 12.2442 134.741 12.2442C134.078 12.2442 133.539 12.077 133.122 11.7426C132.705 11.4082 132.485 10.9154 132.462 10.2642H133.659C133.671 10.5517 133.767 10.7834 133.949 10.9594C134.137 11.1295 134.392 11.2146 134.715 11.2146C135.014 11.2146 135.243 11.1325 135.401 10.9682C135.565 10.7981 135.648 10.581 135.648 10.317C135.648 9.965 135.536 9.71273 135.313 9.5602C135.09 9.40766 134.744 9.3314 134.275 9.3314H134.02V8.3194H134.275C135.108 8.3194 135.524 8.04073 135.524 7.4834C135.524 7.23113 135.448 7.03459 135.296 6.89379C135.149 6.75299 134.935 6.68259 134.653 6.68259C134.377 6.68259 134.163 6.75886 134.011 6.9114C133.864 7.05806 133.779 7.24579 133.756 7.4746H132.55Z" fill="white"/>
<circle cx="197.1" cy="8.8" r="8.43333" fill="#FE524D" stroke="#F9FAFC" stroke-width="0.733333"/>
<path d="M194.805 10.9506V9.9826L197.682 5.86419H199.117V9.877H199.891V10.9506H199.117V12.2002H197.885V10.9506H194.805ZM197.964 7.18419L196.16 9.877H197.964V7.18419Z" fill="white"/>
<circle cx="259.7" cy="8.8" r="8.43333" fill="#FE524D" stroke="#F9FAFC" stroke-width="0.733333"/>
<path d="M261.847 6.84979H258.995V8.3546C259.119 8.20206 259.295 8.07886 259.523 7.98499C259.752 7.88526 259.996 7.8354 260.254 7.8354C260.723 7.8354 261.107 7.93806 261.407 8.1434C261.706 8.34873 261.923 8.61273 262.058 8.9354C262.193 9.2522 262.26 9.59246 262.26 9.9562C262.26 10.6309 262.067 11.1735 261.679 11.5842C261.298 11.9949 260.753 12.2002 260.043 12.2002C259.374 12.2002 258.84 12.033 258.441 11.6986C258.042 11.3642 257.816 10.9271 257.763 10.3874H258.96C259.013 10.6221 259.13 10.8098 259.312 10.9506C259.5 11.0914 259.738 11.1618 260.025 11.1618C260.371 11.1618 260.632 11.0533 260.808 10.8362C260.984 10.6191 261.072 10.3317 261.072 9.9738C261.072 9.61006 260.981 9.33433 260.799 9.1466C260.623 8.953 260.362 8.8562 260.016 8.8562C259.77 8.8562 259.565 8.9178 259.4 9.041C259.236 9.16419 259.119 9.32846 259.048 9.5338H257.869V5.7674H261.847V6.84979Z" fill="white"/>
</svg>
