<svg width="264" height="19" viewBox="0 0 264 19" fill="none" xmlns="http://www.w3.org/2000/svg">
<rect x="0.716675" y="9" width="262" height="2" rx="1" fill="#D3DCE6"/>
<circle cx="9.08333" cy="9.8" r="8.43333" fill="#FE524D" stroke="#F9FAFC" stroke-width="0.733333"/>
<path d="M8.00598 7.92019V6.78499H10.1268V13.2002H8.85958V7.92019H8.00598Z" fill="white"/>
<circle cx="70.95" cy="9.06667" r="8.06667" fill="white" stroke="#D3DCE6" stroke-width="1.17333"/>
<path d="M69.2103 11.0764C69.7735 10.6071 70.2223 10.2169 70.5567 9.906C70.8911 9.5892 71.1698 9.26066 71.3927 8.9204C71.6157 8.58013 71.7271 8.24573 71.7271 7.9172C71.7271 7.618 71.6567 7.38333 71.5159 7.2132C71.3751 7.04306 71.1581 6.958 70.8647 6.958C70.5714 6.958 70.3455 7.05773 70.1871 7.2572C70.0287 7.4508 69.9466 7.71773 69.9407 8.058H68.7439C68.7674 7.354 68.9757 6.82013 69.3687 6.4564C69.7677 6.09266 70.2722 5.9108 70.8823 5.9108C71.5511 5.9108 72.0645 6.08973 72.4223 6.4476C72.7802 6.7996 72.9591 7.266 72.9591 7.8468C72.9591 8.3044 72.8359 8.74146 72.5895 9.158C72.3431 9.57453 72.0615 9.93826 71.7447 10.2492C71.4279 10.5543 71.0143 10.9239 70.5039 11.358H73.0999V12.3788H68.7527V11.4636L69.2103 11.0764Z" fill="#D3DCE6"/>
<circle cx="132.083" cy="9.06667" r="8.06667" fill="white" stroke="#D3DCE6" stroke-width="1.17333"/>
<path d="M129.867 7.7412C129.896 7.15453 130.101 6.7028 130.483 6.386C130.87 6.06333 131.377 5.902 132.005 5.902C132.433 5.902 132.8 5.97826 133.105 6.1308C133.41 6.27746 133.639 6.47986 133.791 6.738C133.95 6.99026 134.029 7.27773 134.029 7.6004C134.029 7.97 133.932 8.28386 133.739 8.542C133.551 8.79426 133.325 8.9644 133.061 9.0524V9.0876C133.401 9.1932 133.665 9.38093 133.853 9.6508C134.047 9.92066 134.143 10.2668 134.143 10.6892C134.143 11.0412 134.061 11.3551 133.897 11.6308C133.739 11.9065 133.501 12.1236 133.184 12.282C132.873 12.4345 132.498 12.5108 132.058 12.5108C131.395 12.5108 130.855 12.3436 130.439 12.0092C130.022 11.6748 129.802 11.182 129.779 10.5308H130.975C130.987 10.8183 131.084 11.05 131.266 11.226C131.454 11.3961 131.709 11.4812 132.031 11.4812C132.331 11.4812 132.559 11.3991 132.718 11.2348C132.882 11.0647 132.964 10.8476 132.964 10.5836C132.964 10.2316 132.853 9.97933 132.63 9.8268C132.407 9.67426 132.061 9.598 131.591 9.598H131.336V8.586H131.591C132.424 8.586 132.841 8.30733 132.841 7.75C132.841 7.49773 132.765 7.3012 132.612 7.1604C132.466 7.0196 132.251 6.9492 131.97 6.9492C131.694 6.9492 131.48 7.02546 131.327 7.178C131.181 7.32466 131.096 7.5124 131.072 7.7412H129.867Z" fill="#D3DCE6"/>
<circle cx="193.217" cy="9.06667" r="8.06667" fill="white" stroke="#D3DCE6" stroke-width="1.17333"/>
<path d="M190.655 11.2172V10.2492L193.532 6.1308H194.967V10.1436H195.741V11.2172H194.967V12.4668H193.735V11.2172H190.655ZM193.814 7.4508L192.01 10.1436H193.814V7.4508Z" fill="#D3DCE6"/>
<circle cx="254.35" cy="9.06667" r="8.06667" fill="white" stroke="#D3DCE6" stroke-width="1.17333"/>
<path d="M256.23 7.1164H253.379V8.6212C253.502 8.46866 253.678 8.34546 253.907 8.2516C254.136 8.15186 254.379 8.102 254.637 8.102C255.107 8.102 255.491 8.20466 255.79 8.41C256.089 8.61533 256.306 8.87933 256.441 9.202C256.576 9.5188 256.644 9.85906 256.644 10.2228C256.644 10.8975 256.45 11.4401 256.063 11.8508C255.682 12.2615 255.136 12.4668 254.426 12.4668C253.757 12.4668 253.223 12.2996 252.824 11.9652C252.426 11.6308 252.2 11.1937 252.147 10.654H253.344C253.396 10.8887 253.514 11.0764 253.696 11.2172C253.883 11.358 254.121 11.4284 254.408 11.4284C254.755 11.4284 255.016 11.3199 255.192 11.1028C255.368 10.8857 255.456 10.5983 255.456 10.2404C255.456 9.87666 255.365 9.60093 255.183 9.4132C255.007 9.2196 254.746 9.1228 254.4 9.1228C254.153 9.1228 253.948 9.1844 253.784 9.3076C253.619 9.4308 253.502 9.59506 253.432 9.8004H252.252L252.252 6.034H256.23V7.1164Z" fill="#D3DCE6"/>
</svg>
