<svg width="268" height="19" viewBox="0 0 268 19" fill="none" xmlns="http://www.w3.org/2000/svg">
<rect x="0.666748" y="9" width="262" height="2" rx="1" fill="#D3DCE6"/>
<circle cx="9.0334" cy="9.8" r="8.43333" fill="#FE524D" stroke="#F9FAFC" stroke-width="0.733333"/>
<path d="M7.95606 7.92019V6.78499H10.0769V13.2002H8.80966V7.92019H7.95606Z" fill="white"/>
<circle cx="71.6335" cy="9.8" r="8.43333" fill="#FE524D" stroke="#F9FAFC" stroke-width="0.733333"/>
<path d="M70.1605 11.8098C70.7237 11.3405 71.1725 10.9503 71.5069 10.6394C71.8413 10.3226 72.12 9.99406 72.3429 9.65379C72.5659 9.31353 72.6773 8.97913 72.6773 8.6506C72.6773 8.3514 72.6069 8.11673 72.4661 7.9466C72.3253 7.77646 72.1083 7.69139 71.8149 7.69139C71.5216 7.69139 71.2957 7.79113 71.1373 7.9906C70.9789 8.1842 70.8968 8.45113 70.8909 8.79139H69.6941C69.7176 8.08739 69.9259 7.55353 70.3189 7.18979C70.7179 6.82606 71.2224 6.64419 71.8325 6.64419C72.5013 6.64419 73.0147 6.82313 73.3725 7.181C73.7304 7.533 73.9093 7.9994 73.9093 8.58019C73.9093 9.03779 73.7861 9.47486 73.5397 9.8914C73.2933 10.3079 73.0117 10.6717 72.6949 10.9826C72.3781 11.2877 71.9645 11.6573 71.4541 12.0914H74.0501V13.1122H69.7029V12.197L70.1605 11.8098Z" fill="white"/>
<circle cx="134.233" cy="9.8" r="8.43333" fill="#FE524D" stroke="#F9FAFC" stroke-width="0.733333"/>
<path d="M132.283 8.4746C132.313 7.88793 132.518 7.43619 132.899 7.11939C133.287 6.79673 133.794 6.63539 134.422 6.63539C134.85 6.63539 135.217 6.71166 135.522 6.86419C135.827 7.01086 136.056 7.21326 136.208 7.47139C136.367 7.72366 136.446 8.01113 136.446 8.33379C136.446 8.7034 136.349 9.01726 136.155 9.2754C135.968 9.52766 135.742 9.6978 135.478 9.7858V9.821C135.818 9.9266 136.082 10.1143 136.27 10.3842C136.463 10.6541 136.56 11.0002 136.56 11.4226C136.56 11.7746 136.478 12.0885 136.314 12.3642C136.155 12.6399 135.918 12.857 135.601 13.0154C135.29 13.1679 134.915 13.2442 134.475 13.2442C133.812 13.2442 133.272 13.077 132.855 12.7426C132.439 12.4082 132.219 11.9154 132.195 11.2642H133.392C133.404 11.5517 133.501 11.7834 133.683 11.9594C133.87 12.1295 134.125 12.2146 134.448 12.2146C134.747 12.2146 134.976 12.1325 135.135 11.9682C135.299 11.7981 135.381 11.581 135.381 11.317C135.381 10.965 135.269 10.7127 135.047 10.5602C134.824 10.4077 134.477 10.3314 134.008 10.3314H133.753V9.3194H134.008C134.841 9.3194 135.258 9.04073 135.258 8.4834C135.258 8.23113 135.181 8.03459 135.029 7.89379C134.882 7.75299 134.668 7.68259 134.387 7.68259C134.111 7.68259 133.897 7.75886 133.744 7.9114C133.597 8.05806 133.512 8.24579 133.489 8.4746H132.283Z" fill="white"/>
<circle cx="196.833" cy="9.8" r="8.43333" fill="#FE524D" stroke="#F9FAFC" stroke-width="0.733333"/>
<path d="M194.538 11.9506V10.9826L197.416 6.86419H198.85V10.877H199.624V11.9506H198.85V13.2002H197.618V11.9506H194.538ZM197.697 8.18419L195.893 10.877H197.697V8.18419Z" fill="white"/>
<circle cx="258.7" cy="9.06667" r="8.06667" fill="white" stroke="#D3DCE6" stroke-width="1.17333"/>
<path d="M260.58 7.1164H257.729V8.6212C257.852 8.46866 258.028 8.34546 258.257 8.2516C258.486 8.15186 258.729 8.102 258.987 8.102C259.457 8.102 259.841 8.20466 260.14 8.41C260.439 8.61533 260.656 8.87933 260.791 9.202C260.926 9.5188 260.994 9.85906 260.994 10.2228C260.994 10.8975 260.8 11.4401 260.413 11.8508C260.032 12.2615 259.486 12.4668 258.776 12.4668C258.107 12.4668 257.573 12.2996 257.174 11.9652C256.776 11.6308 256.55 11.1937 256.497 10.654H257.694C257.746 10.8887 257.864 11.0764 258.046 11.2172C258.233 11.358 258.471 11.4284 258.758 11.4284C259.105 11.4284 259.366 11.3199 259.542 11.1028C259.718 10.8857 259.806 10.5983 259.806 10.2404C259.806 9.87666 259.715 9.60093 259.533 9.4132C259.357 9.2196 259.096 9.1228 258.75 9.1228C258.503 9.1228 258.298 9.1844 258.134 9.3076C257.969 9.4308 257.852 9.59506 257.782 9.8004H256.602V6.034H260.58V7.1164Z" fill="#D3DCE6"/>
</svg>
