<svg width="267" height="19" viewBox="0 0 267 19" fill="none" xmlns="http://www.w3.org/2000/svg">
<rect x="1.40002" y="9" width="262" height="2" rx="1" fill="#D3DCE6"/>
<circle cx="9.76667" cy="9.8" r="8.43333" fill="#FE524D" stroke="#F9FAFC" stroke-width="0.733333"/>
<path d="M8.68933 7.92019V6.78499H10.8101V13.2002H9.54293V7.92019H8.68933Z" fill="white"/>
<circle cx="72.3667" cy="9.8" r="8.43333" fill="#FE524D" stroke="#F9FAFC" stroke-width="0.733333"/>
<path d="M70.8937 11.8098C71.4569 11.3405 71.9057 10.9503 72.2401 10.6394C72.5745 10.3226 72.8532 9.99406 73.0761 9.65379C73.299 9.31353 73.4105 8.97913 73.4105 8.6506C73.4105 8.3514 73.3401 8.11673 73.1993 7.9466C73.0585 7.77646 72.8414 7.69139 72.5481 7.69139C72.2548 7.69139 72.0289 7.79113 71.8705 7.9906C71.7121 8.1842 71.63 8.45113 71.6241 8.79139H70.4273C70.4508 8.08739 70.659 7.55353 71.0521 7.18979C71.451 6.82606 71.9556 6.64419 72.5657 6.64419C73.2345 6.64419 73.7478 6.82313 74.1057 7.181C74.4636 7.533 74.6425 7.9994 74.6425 8.58019C74.6425 9.03779 74.5193 9.47486 74.2729 9.8914C74.0265 10.3079 73.7449 10.6717 73.4281 10.9826C73.1113 11.2877 72.6977 11.6573 72.1873 12.0914H74.7833V13.1122H70.4361V12.197L70.8937 11.8098Z" fill="white"/>
<circle cx="134.967" cy="9.8" r="8.43333" fill="#FE524D" stroke="#F9FAFC" stroke-width="0.733333"/>
<path d="M133.017 8.4746C133.046 7.88793 133.251 7.43619 133.633 7.11939C134.02 6.79673 134.527 6.63539 135.155 6.63539C135.583 6.63539 135.95 6.71166 136.255 6.86419C136.56 7.01086 136.789 7.21326 136.942 7.47139C137.1 7.72366 137.179 8.01113 137.179 8.33379C137.179 8.7034 137.082 9.01726 136.889 9.2754C136.701 9.52766 136.475 9.6978 136.211 9.7858V9.821C136.551 9.9266 136.815 10.1143 137.003 10.3842C137.197 10.6541 137.294 11.0002 137.294 11.4226C137.294 11.7746 137.211 12.0885 137.047 12.3642C136.889 12.6399 136.651 12.857 136.334 13.0154C136.023 13.1679 135.648 13.2442 135.208 13.2442C134.545 13.2442 134.005 13.077 133.589 12.7426C133.172 12.4082 132.952 11.9154 132.929 11.2642H134.126C134.137 11.5517 134.234 11.7834 134.416 11.9594C134.604 12.1295 134.859 12.2146 135.182 12.2146C135.481 12.2146 135.71 12.1325 135.868 11.9682C136.032 11.7981 136.114 11.581 136.114 11.317C136.114 10.965 136.003 10.7127 135.78 10.5602C135.557 10.4077 135.211 10.3314 134.742 10.3314H134.486V9.3194H134.742C135.575 9.3194 135.991 9.04073 135.991 8.4834C135.991 8.23113 135.915 8.03459 135.762 7.89379C135.616 7.75299 135.402 7.68259 135.12 7.68259C134.844 7.68259 134.63 7.75886 134.478 7.9114C134.331 8.05806 134.246 8.24579 134.222 8.4746H133.017Z" fill="white"/>
<circle cx="196.833" cy="9.06667" r="8.06667" fill="white" stroke="#D3DCE6" stroke-width="1.17333"/>
<path d="M194.271 11.2172V10.2492L197.149 6.1308H198.583V10.1436H199.358V11.2172H198.583V12.4668H197.351V11.2172H194.271ZM197.43 7.4508L195.626 10.1436H197.43V7.4508Z" fill="#D3DCE6"/>
<circle cx="257.967" cy="9.06667" r="8.06667" fill="white" stroke="#D3DCE6" stroke-width="1.17333"/>
<path d="M259.847 7.1164H256.995V8.6212C257.119 8.46866 257.295 8.34546 257.523 8.2516C257.752 8.15186 257.996 8.102 258.254 8.102C258.723 8.102 259.107 8.20466 259.407 8.41C259.706 8.61533 259.923 8.87933 260.058 9.202C260.193 9.5188 260.26 9.85906 260.26 10.2228C260.26 10.8975 260.067 11.4401 259.679 11.8508C259.298 12.2615 258.753 12.4668 258.043 12.4668C257.374 12.4668 256.84 12.2996 256.441 11.9652C256.042 11.6308 255.816 11.1937 255.763 10.654H256.96C257.013 10.8887 257.13 11.0764 257.312 11.2172C257.5 11.358 257.738 11.4284 258.025 11.4284C258.371 11.4284 258.632 11.3199 258.808 11.1028C258.984 10.8857 259.072 10.5983 259.072 10.2404C259.072 9.87666 258.981 9.60093 258.799 9.4132C258.623 9.2196 258.362 9.1228 258.016 9.1228C257.77 9.1228 257.565 9.1844 257.4 9.3076C257.236 9.4308 257.119 9.59506 257.048 9.8004H255.869L255.869 6.034H259.847V7.1164Z" fill="#D3DCE6"/>
</svg>
