<svg width="265" height="19" viewBox="0 0 265 19" fill="none" xmlns="http://www.w3.org/2000/svg">
<rect x="1.1333" y="9" width="262" height="2" rx="1" fill="#D3DCE6"/>
<circle cx="9.49995" cy="9.8" r="8.43333" fill="#FE524D" stroke="#F9FAFC" stroke-width="0.733333"/>
<path d="M8.42261 7.92019V6.78499H10.5434V13.2002H9.27621V7.92019H8.42261Z" fill="white"/>
<circle cx="72.0999" cy="9.8" r="8.43333" fill="#FE524D" stroke="#F9FAFC" stroke-width="0.733333"/>
<path d="M70.627 11.8098C71.1902 11.3405 71.639 10.9503 71.9734 10.6394C72.3078 10.3226 72.5864 9.99406 72.8094 9.65379C73.0323 9.31353 73.1438 8.97913 73.1438 8.6506C73.1438 8.3514 73.0734 8.11673 72.9326 7.9466C72.7918 7.77646 72.5747 7.69139 72.2814 7.69139C71.988 7.69139 71.7622 7.79113 71.6038 7.9906C71.4454 8.1842 71.3632 8.45113 71.3574 8.79139H70.1606C70.184 8.08739 70.3923 7.55353 70.7854 7.18979C71.1843 6.82606 71.6888 6.64419 72.299 6.64419C72.9678 6.64419 73.4811 6.82313 73.839 7.181C74.1968 7.533 74.3758 7.9994 74.3758 8.58019C74.3758 9.03779 74.2526 9.47486 74.0062 9.8914C73.7598 10.3079 73.4782 10.6717 73.1614 10.9826C72.8446 11.2877 72.431 11.6573 71.9206 12.0914H74.5166V13.1122H70.1694V12.197L70.627 11.8098Z" fill="white"/>
<circle cx="133.967" cy="9.06667" r="8.06667" fill="white" stroke="#D3DCE6" stroke-width="1.17333"/>
<path d="M131.75 7.7412C131.779 7.15453 131.985 6.7028 132.366 6.386C132.753 6.06333 133.261 5.902 133.888 5.902C134.317 5.902 134.683 5.97826 134.988 6.1308C135.293 6.27746 135.522 6.47986 135.675 6.738C135.833 6.99026 135.912 7.27773 135.912 7.6004C135.912 7.97 135.816 8.28386 135.622 8.542C135.434 8.79426 135.208 8.9644 134.944 9.0524V9.0876C135.285 9.1932 135.549 9.38093 135.736 9.6508C135.93 9.92066 136.027 10.2668 136.027 10.6892C136.027 11.0412 135.945 11.3551 135.78 11.6308C135.622 11.9065 135.384 12.1236 135.068 12.282C134.757 12.4345 134.381 12.5108 133.941 12.5108C133.278 12.5108 132.738 12.3436 132.322 12.0092C131.905 11.6748 131.685 11.182 131.662 10.5308H132.859C132.87 10.8183 132.967 11.05 133.149 11.226C133.337 11.3961 133.592 11.4812 133.915 11.4812C134.214 11.4812 134.443 11.3991 134.601 11.2348C134.765 11.0647 134.848 10.8476 134.848 10.5836C134.848 10.2316 134.736 9.97933 134.513 9.8268C134.29 9.67426 133.944 9.598 133.475 9.598H133.22V8.586H133.475C134.308 8.586 134.724 8.30733 134.724 7.75C134.724 7.49773 134.648 7.3012 134.496 7.1604C134.349 7.0196 134.135 6.9492 133.853 6.9492C133.577 6.9492 133.363 7.02546 133.211 7.178C133.064 7.32466 132.979 7.5124 132.956 7.7412H131.75Z" fill="#D3DCE6"/>
<circle cx="195.1" cy="9.06667" r="8.06667" fill="white" stroke="#D3DCE6" stroke-width="1.17333"/>
<path d="M192.538 11.2172V10.2492L195.416 6.1308H196.85V10.1436H197.624V11.2172H196.85V12.4668H195.618V11.2172H192.538ZM195.697 7.4508L193.893 10.1436H195.697V7.4508Z" fill="#D3DCE6"/>
<circle cx="256.233" cy="9.06667" r="8.06667" fill="white" stroke="#D3DCE6" stroke-width="1.17333"/>
<path d="M258.113 7.1164H255.262V8.6212C255.385 8.46866 255.561 8.34546 255.79 8.2516C256.019 8.15186 256.262 8.102 256.521 8.102C256.99 8.102 257.374 8.20466 257.673 8.41C257.973 8.61533 258.19 8.87933 258.325 9.202C258.46 9.5188 258.527 9.85906 258.527 10.2228C258.527 10.8975 258.333 11.4401 257.946 11.8508C257.565 12.2615 257.019 12.4668 256.309 12.4668C255.641 12.4668 255.107 12.2996 254.708 11.9652C254.309 11.6308 254.083 11.1937 254.03 10.654H255.227C255.28 10.8887 255.397 11.0764 255.579 11.2172C255.767 11.358 256.004 11.4284 256.292 11.4284C256.638 11.4284 256.899 11.3199 257.075 11.1028C257.251 10.8857 257.339 10.5983 257.339 10.2404C257.339 9.87666 257.248 9.60093 257.066 9.4132C256.89 9.2196 256.629 9.1228 256.283 9.1228C256.037 9.1228 255.831 9.1844 255.667 9.3076C255.503 9.4308 255.385 9.59506 255.315 9.8004H254.136L254.136 6.034H258.113V7.1164Z" fill="#D3DCE6"/>
</svg>
