<svg width="23" height="23" viewBox="0 0 23 23" fill="none" xmlns="http://www.w3.org/2000/svg">
<g clip-path="url(#clip0_448_5234)">
<path fill-rule="evenodd" clip-rule="evenodd" d="M2.7659 1.50781L11.8969 1.50391L11.9047 5.81947L12.0024 5.95226C12.0571 6.02646 12.1586 6.11238 12.225 6.13972C12.3265 6.17877 12.8108 6.19049 16.5718 6.19049V8.70953L14.537 10.7404C13.1154 12.1581 12.4476 12.8533 12.3187 13.0446C12.1664 13.2711 12.0766 13.4977 11.772 14.4115C11.4126 15.4895 11.4048 15.509 11.4244 15.8175C11.4361 16.0518 11.4634 16.1846 11.5415 16.3448C11.5962 16.4619 11.7251 16.6416 11.8227 16.747C11.9204 16.8486 12.1117 16.9814 12.2445 17.0477C12.4125 17.1298 12.5765 17.1727 12.7639 17.1883C13.0295 17.2118 13.0647 17.204 14.0723 16.872C14.6425 16.6845 15.2283 16.4658 15.3806 16.3877C15.572 16.2901 15.7868 16.1221 16.0914 15.8292C16.3648 15.5676 16.5406 15.427 16.5523 15.4543C16.564 15.4816 16.5679 16.54 16.564 17.8093C16.5523 20.0784 16.5523 20.1175 16.4663 20.3284C16.4195 20.4455 16.3101 20.6408 16.2242 20.758C16.1383 20.8751 15.9743 21.0431 15.861 21.129C15.7477 21.2149 15.5368 21.3321 15.1268 21.5H2.78542L2.50032 21.3828C2.34801 21.3164 2.14883 21.2149 2.06681 21.1563C1.9848 21.0977 1.85201 20.9806 1.77781 20.8947C1.7036 20.8087 1.59425 20.633 1.53176 20.5041C1.46927 20.3752 1.40288 20.1721 1.37945 20.055C1.35211 19.9105 1.34039 17.0712 1.34039 11.502C1.34039 5.93273 1.35211 3.09344 1.37945 2.94894C1.40288 2.83177 1.46927 2.62869 1.53176 2.4998C1.59425 2.37092 1.7036 2.19518 1.77781 2.10926C1.85201 2.02334 1.9848 1.90617 2.06681 1.84759C2.14883 1.78901 2.3402 1.68746 2.49251 1.62498L2.7659 1.50781ZM3.7618 7.67067C3.71884 7.75659 3.68369 7.88157 3.68369 7.94405C3.68369 8.01045 3.71884 8.13152 3.7618 8.21744C3.81387 8.32158 3.89198 8.39969 3.99613 8.45177C4.14844 8.52988 4.23045 8.52988 8.35856 8.52988C12.2875 8.52988 12.5765 8.52597 12.7054 8.46348C12.7796 8.42443 12.8811 8.3346 12.9319 8.25649C12.9905 8.16667 13.0217 8.06512 13.0217 7.94405C13.0217 7.82689 12.9905 7.72535 12.9319 7.63162C12.8811 7.55741 12.7796 7.46759 12.7054 7.42853C12.5765 7.36604 12.2914 7.35823 8.35075 7.36214C4.24217 7.36214 4.12891 7.36604 3.98441 7.44025C3.89458 7.48711 3.81257 7.57303 3.7618 7.67067ZM3.7618 10.014C3.71884 10.0999 3.68369 10.2249 3.68369 10.2873C3.68369 10.3537 3.71884 10.4748 3.7618 10.5607C3.81387 10.6649 3.89198 10.743 3.99613 10.7951C4.14844 10.8732 4.23045 10.8732 7.18691 10.8732C10.0028 10.8732 10.2371 10.8693 10.3621 10.8068C10.4363 10.7677 10.5378 10.6779 10.5886 10.5998C10.6472 10.51 10.6784 10.4084 10.6784 10.2873C10.6784 10.1702 10.6472 10.0686 10.5886 9.97491C10.5378 9.9007 10.4363 9.81088 10.3621 9.77182C10.2371 9.70933 10.0028 9.70152 7.1791 9.70543C4.23436 9.70543 4.12891 9.70933 3.98441 9.78354C3.89458 9.83041 3.81257 9.91633 3.7618 10.014ZM3.7618 12.3573C3.71884 12.4432 3.68369 12.5682 3.68369 12.6306C3.68369 12.697 3.71884 12.8181 3.7618 12.904C3.81387 13.0082 3.89198 13.0863 3.99613 13.1384C4.14844 13.2165 4.23045 13.2165 7.18691 13.2165C10.0028 13.2165 10.2371 13.2126 10.3621 13.1501C10.4363 13.111 10.5378 13.0212 10.5886 12.9431C10.6472 12.8533 10.6784 12.7517 10.6784 12.6306C10.6784 12.5135 10.6472 12.4119 10.5886 12.3182C10.5378 12.244 10.4363 12.1542 10.3621 12.1151C10.2371 12.0526 10.0028 12.0448 7.1791 12.0487C4.23436 12.0487 4.12891 12.0526 3.98441 12.1268C3.89458 12.1737 3.81257 12.2596 3.7618 12.3573ZM3.7618 14.7005C3.71884 14.7865 3.68369 14.9114 3.68369 14.9739C3.68369 15.0403 3.71884 15.1614 3.7618 15.2473C3.81387 15.3515 3.89198 15.4296 3.99613 15.4816C4.14844 15.5598 4.23045 15.5598 7.18691 15.5598C10.0028 15.5598 10.2371 15.5559 10.3621 15.4934C10.4363 15.4543 10.5378 15.3645 10.5886 15.2864C10.6472 15.1965 10.6784 15.095 10.6784 14.9739C10.6784 14.8568 10.6472 14.7552 10.5886 14.6615C10.5378 14.5873 10.4363 14.4975 10.3621 14.4584C10.2371 14.3959 10.0028 14.3881 7.1791 14.392C4.23436 14.392 4.12891 14.3959 3.98441 14.4701C3.89458 14.517 3.81257 14.6029 3.7618 14.7005ZM8.45619 18.1764C8.39761 18.2702 8.36637 18.3717 8.36637 18.4889C8.36637 18.6099 8.39761 18.7115 8.45619 18.8013C8.50696 18.8794 8.60851 18.9692 8.68271 19.0083C8.80769 19.0708 8.98734 19.0747 10.694 19.0747C12.4007 19.0747 12.5804 19.0708 12.7054 19.0083C12.7796 18.9692 12.8811 18.8794 12.9319 18.8013C12.9905 18.7115 13.0217 18.6099 13.0217 18.4889C13.0217 18.3717 12.9905 18.2702 12.9319 18.1764C12.8811 18.1022 12.7796 18.0124 12.7054 17.9733C12.5804 17.9109 12.4007 17.903 10.694 17.903C8.98734 17.903 8.80769 17.9109 8.68271 17.9733C8.60851 18.0124 8.50696 18.1022 8.45619 18.1764ZM13.0178 1.5H13.2326C13.381 1.5 13.5333 1.53515 13.7286 1.62107C13.8848 1.68356 14.0762 1.7812 14.1504 1.83197C14.2246 1.88664 14.7284 2.37092 15.2674 2.91379C15.8454 3.4957 16.2828 3.96827 16.3258 4.05809C16.3687 4.14402 16.4312 4.30414 16.4663 4.40959C16.4976 4.51894 16.5327 4.69859 16.5523 5.01494H13.0178V1.5ZM20.1531 7.28403C20.2781 7.28403 20.4499 7.31527 20.5827 7.36604C20.7077 7.41291 20.8756 7.51445 20.9616 7.59256C21.0436 7.66676 21.1647 7.8347 21.2271 7.96358C21.3131 8.14714 21.3365 8.25259 21.3365 8.44396C21.3365 8.62751 21.3092 8.74077 21.2271 8.91262C21.1529 9.07274 20.9889 9.27583 20.653 9.6156C20.3953 9.88118 20.1648 10.096 20.1453 10.096C20.1219 10.096 19.7352 9.72496 18.466 8.45177L18.8565 8.06122C19.0713 7.84251 19.333 7.60428 19.4423 7.52617C19.5478 7.44806 19.7079 7.36214 19.7938 7.3348C19.8797 7.30746 20.0438 7.28403 20.1531 7.28403ZM17.6458 9.31098C17.6653 9.31098 18.052 9.682 19.3252 10.9513L17.4115 12.865C16.357 13.9194 15.4783 14.7787 15.4587 14.7787C15.4353 14.7787 15.0487 14.4115 13.7794 13.1384L15.6931 11.2247C16.7436 10.1741 17.6224 9.31098 17.6458 9.31098ZM13.1037 14.0952L13.7833 14.7787C14.1582 15.1575 14.4628 15.4738 14.4628 15.4816C14.4628 15.4934 14.0957 15.6261 12.8264 16.0479L12.7171 15.9659C12.6507 15.9191 12.6038 15.841 12.596 15.7707C12.5882 15.7082 12.6976 15.3176 12.846 14.8763L13.1037 14.0952Z" fill="white"/>
</g>
<defs>
<clipPath id="clip0_448_5234">
<rect width="22" height="22" fill="white" transform="translate(0.33844 0.5)"/>
</clipPath>
</defs>
</svg>
