<svg width="41" height="42" viewBox="0 0 41 42" fill="none" xmlns="http://www.w3.org/2000/svg">
<circle opacity="0.1" cx="20.5" cy="21" r="20.5" fill="#FE524D"/>
<path fill-rule="evenodd" clip-rule="evenodd" d="M12.4576 12.3168C12.5429 12.3125 12.7262 12.3466 12.8626 12.3892C12.9948 12.4319 13.1909 12.5129 13.2975 12.5768C13.4041 12.6365 13.5831 12.79 13.694 12.9136C13.8133 13.0458 13.937 13.2419 13.9839 13.3783C14.0308 13.5062 14.0819 13.7279 14.116 14.1244L22.4125 18.473L22.4423 17.4626L22.7194 17.2153H24.5228C26.2196 17.2111 26.3262 17.2153 26.4285 17.2921C26.4882 17.3347 26.8207 17.7823 27.1703 18.2854C27.5199 18.7885 28.0571 19.5431 28.3641 19.9652C28.671 20.3872 29.1016 20.95 29.3233 21.2228C29.545 21.4914 29.7667 21.8069 29.8221 21.9263C29.8775 22.0414 29.9415 22.2546 29.9671 22.3953C30.0012 22.5615 30.0097 23.2053 29.9884 25.8059L29.8818 26.0148C29.8221 26.1299 29.6985 26.2919 29.6047 26.3687C29.5109 26.4454 29.3489 26.5392 29.2423 26.5733C29.1357 26.6117 28.9567 26.6373 28.6241 26.6373L28.5303 26.9442C28.4749 27.1148 28.3598 27.3706 28.2703 27.5112C28.1807 27.6519 27.9931 27.8736 27.8525 28.0015C27.716 28.1337 27.4773 28.3 27.3238 28.3767C27.1703 28.4534 26.8932 28.5515 26.7056 28.5984C26.518 28.6453 26.3049 28.6837 26.2367 28.6837C26.1642 28.6837 25.9638 28.6538 25.789 28.6154C25.6142 28.5771 25.3286 28.4833 25.1623 28.4023C24.9704 28.3127 24.753 28.1635 24.591 28.0101C24.4461 27.8779 24.2542 27.6519 24.1647 27.5112C24.0752 27.3706 23.9558 27.1148 23.8066 26.6373H17.1558L17.1259 26.795C17.1089 26.8845 17.0151 27.119 16.9128 27.3194C16.7891 27.5709 16.6527 27.7585 16.4736 27.9376C16.3287 28.0825 16.0857 28.2616 15.9194 28.3511C15.7531 28.4364 15.4675 28.5472 15.2799 28.5941C15.0923 28.6453 14.8621 28.6837 14.7683 28.6837C14.6745 28.6837 14.4443 28.6453 14.2567 28.5941C14.0691 28.5472 13.8219 28.462 13.7025 28.4023C13.5874 28.3426 13.387 28.219 13.2676 28.1252C13.144 28.0356 12.9692 27.8694 12.8797 27.7543C12.7944 27.6434 12.6665 27.4473 12.6026 27.3194C12.5386 27.1915 12.4619 26.9869 12.432 26.8717C12.3766 26.6586 12.3766 26.6586 12.1847 26.6501C12.0824 26.6415 11.8821 26.6159 11.7414 26.5904C11.6007 26.5648 11.3747 26.4838 11.234 26.4113C11.0976 26.3346 10.9015 26.1854 10.7992 26.0702C10.6968 25.9594 10.5476 25.742 10.4752 25.58C10.343 25.3071 10.3345 25.2687 10.3174 24.6761C10.3089 24.2967 10.3217 23.9684 10.3515 23.8235C10.3814 23.6956 10.4496 23.4909 10.5093 23.3758C10.5689 23.2564 10.6968 23.0774 10.7949 22.9751C10.893 22.877 11.0464 22.7449 11.136 22.6894C11.2212 22.634 11.4088 22.5487 11.5495 22.5018C11.7968 22.4208 11.9204 22.4166 19.7351 22.4166V21.4573L19.1468 20.9031C18.827 20.5961 17.3732 19.2276 13.2762 15.3693L13.0204 15.4631C12.8157 15.5398 12.6963 15.5569 12.0611 15.5313V16.8103L12.2615 16.887C12.3766 16.9297 12.5557 17.0277 12.6708 17.1087C12.7816 17.1897 12.9394 17.3475 13.0204 17.4626C13.1014 17.5734 13.2122 17.7951 13.2591 17.9614C13.3316 18.1916 13.3486 18.3323 13.3316 18.5796C13.3188 18.8055 13.2804 18.9718 13.1994 19.1466C13.1355 19.2788 12.999 19.4791 12.8967 19.5943C12.7944 19.7051 12.5983 19.8543 12.4619 19.9311C12.3212 20.0035 12.0952 20.0888 11.9545 20.1144C11.7584 20.1528 11.6305 20.157 11.4216 20.1186C11.2681 20.0931 11.0507 20.0249 10.9313 19.9694C10.8162 19.914 10.6244 19.7861 10.5093 19.6838C10.3771 19.5644 10.2492 19.3896 10.1554 19.1978C10.0531 18.9889 10.0062 18.8311 10.0019 18.6776C9.9934 18.4858 10.0105 18.4389 10.1085 18.3366C10.198 18.247 10.2705 18.2172 10.3942 18.2172C10.5178 18.2172 10.5903 18.247 10.6713 18.3238C10.731 18.3835 10.7906 18.4986 10.8034 18.5796C10.8162 18.6606 10.8802 18.8141 10.9441 18.9207C11.0209 19.0486 11.1274 19.1466 11.2511 19.2063C11.379 19.2702 11.5197 19.3044 11.6774 19.3044C11.8394 19.3044 11.9631 19.2745 12.0824 19.2063C12.172 19.1551 12.3041 19.0358 12.3681 18.942C12.4405 18.8396 12.5002 18.6862 12.5173 18.5583C12.5386 18.3792 12.5258 18.3067 12.432 18.1106C12.3723 17.9827 12.27 17.8378 12.2018 17.7866C12.1379 17.7397 12.0142 17.6758 11.9332 17.6502C11.8522 17.6203 11.7414 17.599 11.6902 17.599C11.6348 17.599 11.541 17.5734 11.477 17.5393C11.4088 17.5095 11.3321 17.4328 11.3065 17.3688C11.2639 17.2878 11.2511 16.9425 11.2511 14.9984L11.1274 14.8193C11.0592 14.717 10.9697 14.5209 10.9313 14.3802C10.8802 14.2054 10.8631 14.0349 10.8759 13.8473C10.8887 13.6938 10.9399 13.4764 10.991 13.357C11.0422 13.2419 11.136 13.0714 11.1999 12.9776C11.2639 12.8881 11.4131 12.7431 11.5282 12.6621C11.6476 12.5768 11.865 12.466 12.0185 12.4106C12.172 12.3594 12.3681 12.3168 12.4576 12.3168ZM11.9034 13.3997C11.8522 13.4721 11.7797 13.6 11.7456 13.6896C11.7073 13.7748 11.6774 13.8942 11.6774 13.9539C11.6774 14.0136 11.7073 14.1329 11.7456 14.2225C11.7797 14.3077 11.8522 14.4271 11.9034 14.4783C11.9545 14.5337 12.0696 14.619 12.1592 14.6616C12.2444 14.7042 12.3894 14.7426 12.4789 14.7426C12.5642 14.7426 12.7134 14.7085 12.8072 14.6659C12.901 14.6232 13.0331 14.5124 13.1056 14.4228C13.2207 14.2736 13.2335 14.2267 13.2335 13.9539C13.2335 13.681 13.2207 13.6341 13.1056 13.4849C13.0331 13.3954 12.901 13.2845 12.8072 13.2419C12.7134 13.1993 12.5599 13.1694 12.4661 13.1694C12.3723 13.1694 12.2274 13.1907 12.1464 13.2206C12.0654 13.2504 11.9545 13.3314 11.9034 13.3997ZM17.2453 17.9827C18.827 19.4706 20.2168 20.7922 20.3362 20.9159L20.5451 21.1376V22.4166H22.421V19.4109C16.2264 16.158 14.4145 15.2116 14.3931 15.2116C14.3761 15.2116 14.3633 15.2244 14.3676 15.2457C14.3676 15.2627 15.6636 16.4948 17.2453 17.9827ZM23.2736 25.8272H23.8066C23.9259 25.4137 24.024 25.1792 24.0965 25.0428C24.1732 24.9021 24.348 24.6719 24.4887 24.5269C24.6294 24.3862 24.8511 24.2072 24.979 24.1347C25.1069 24.0622 25.3371 23.9599 25.4906 23.9045C25.7037 23.832 25.87 23.8107 26.194 23.8064C26.4839 23.8064 26.7014 23.832 26.8762 23.8832C27.0168 23.9258 27.2556 24.0281 27.4091 24.1134C27.5625 24.1986 27.8013 24.382 27.942 24.5269C28.0827 24.6676 28.2575 24.8978 28.3342 25.0385C28.4067 25.1792 28.5047 25.418 28.5474 25.5672L28.6241 25.8358C28.978 25.8017 29.0675 25.7675 29.1059 25.7121C29.1442 25.6567 29.157 25.4052 29.157 24.7955V23.9514C28.9567 23.9514 28.833 23.9215 28.752 23.8874C28.671 23.8533 28.5815 23.7851 28.5602 23.7382C28.5346 23.6913 28.5175 23.5933 28.5175 23.525C28.5175 23.4526 28.5346 23.3588 28.5602 23.3119C28.5815 23.265 28.671 23.1968 28.752 23.1627C28.833 23.1285 28.9567 23.0987 29.0291 23.0987H29.157C29.157 22.6042 29.1315 22.3953 29.1016 22.3228C29.0675 22.246 28.9098 22.0201 28.7435 21.8197C28.5815 21.6193 28.2191 21.1504 27.9377 20.7709C27.6606 20.3958 27.1021 19.6241 26.7056 19.0571L25.9809 18.0211L23.2736 18.0254V25.8272ZM11.6987 23.3247C11.5836 23.3801 11.4216 23.4995 11.3491 23.5933C11.2639 23.6913 11.1871 23.8491 11.1616 23.9727C11.136 24.0921 11.1232 24.3948 11.1317 24.6548C11.1445 25.0001 11.1701 25.1622 11.2255 25.273C11.2681 25.354 11.3449 25.4691 11.396 25.5203C11.4429 25.5757 11.5623 25.661 11.6561 25.7079C11.7669 25.7675 11.9162 25.7974 12.0995 25.8017L12.3681 25.8059C12.4661 25.4435 12.5514 25.2218 12.6281 25.0812C12.7006 24.9405 12.8967 24.6889 13.063 24.5184C13.2847 24.2924 13.4424 24.1773 13.6812 24.0622C13.856 23.977 14.1331 23.8789 14.2994 23.8448C14.4614 23.8107 14.6745 23.7808 14.7683 23.7808C14.8621 23.7808 15.071 23.8107 15.2373 23.8448C15.3993 23.8789 15.6807 23.977 15.8555 24.0622C16.0857 24.1773 16.2605 24.3052 16.4736 24.5227C16.6655 24.7145 16.8275 24.9277 16.9128 25.1025C16.9895 25.2559 17.0748 25.4776 17.1046 25.5927L17.16 25.8059L22.421 25.8272V23.2266H11.9119L11.6987 23.3247ZM13.937 24.8509C13.8304 24.9149 13.6684 25.047 13.5789 25.1494C13.4851 25.2517 13.3614 25.4435 13.3017 25.5714C13.2079 25.7718 13.1909 25.8656 13.1909 26.2322C13.1909 26.6159 13.2037 26.6842 13.3188 26.9144C13.387 27.0551 13.5234 27.2512 13.6258 27.3492C13.7281 27.4516 13.937 27.5965 14.099 27.669C14.3548 27.7969 14.423 27.8097 14.7683 27.8097C15.1094 27.8097 15.1819 27.7926 15.4291 27.6775C15.5826 27.605 15.7915 27.4601 15.8938 27.3578C15.9962 27.2554 16.1411 27.0465 16.2136 26.8931C16.333 26.6415 16.3457 26.5733 16.3457 26.2109C16.3457 25.8613 16.3287 25.7718 16.2349 25.5714C16.1752 25.4435 16.0388 25.2432 15.9365 25.128C15.8214 25.0001 15.6423 24.8722 15.4718 24.787C15.233 24.6719 15.1435 24.6548 14.811 24.642C14.5765 24.6378 14.3676 24.6548 14.278 24.6889C14.197 24.7188 14.0436 24.7912 13.937 24.8509ZM25.2774 24.9319C25.1495 25.0257 24.979 25.1963 24.9022 25.3071C24.8255 25.418 24.736 25.5927 24.7019 25.6993C24.6678 25.8059 24.6294 25.9679 24.6123 26.0617C24.5995 26.1555 24.6081 26.3474 24.6336 26.488C24.6592 26.6287 24.7232 26.8291 24.7743 26.9357C24.8255 27.0423 24.9704 27.2299 25.0941 27.3492C25.2177 27.4729 25.4309 27.6264 25.5673 27.6903C25.7762 27.7884 25.8657 27.8054 26.2153 27.8054C26.5607 27.8097 26.6545 27.7926 26.8548 27.6988C26.9827 27.6391 27.1746 27.5155 27.2726 27.4217C27.375 27.3322 27.5157 27.1702 27.5839 27.0636C27.6478 26.957 27.7373 26.7353 27.7757 26.5733C27.8354 26.3303 27.8439 26.228 27.8056 26.0191C27.7842 25.8784 27.716 25.6567 27.6563 25.5288C27.6009 25.4009 27.456 25.2005 27.3409 25.0854C27.2257 24.9746 27.0254 24.8296 26.8975 24.7699C26.7056 24.6761 26.5905 24.6548 26.2793 24.6463C26.0363 24.6378 25.8231 24.6548 25.7037 24.6932C25.5972 24.7273 25.4053 24.8339 25.2774 24.9319ZM24.9918 18.7501C25.4991 18.7501 25.6099 18.7629 25.691 18.8269C25.7378 18.8652 25.9595 19.185 26.177 19.5388C26.3901 19.8884 26.6886 20.3617 26.8378 20.5833C26.9827 20.805 27.1618 21.0651 27.2343 21.1589C27.3067 21.2527 27.3792 21.3806 27.3878 21.4445C27.4005 21.5128 27.3792 21.6193 27.3451 21.6918C27.311 21.76 27.2428 21.8368 27.1959 21.8623C27.1447 21.8879 26.5692 21.905 24.3821 21.905L24.1263 21.6492L24.1476 18.9548L24.267 18.8524C24.3821 18.7544 24.412 18.7501 24.9918 18.7501ZM24.9363 21.0949H26.1727C26.0405 20.8818 25.8231 20.5322 25.6057 20.1869C25.2305 19.5857 25.2092 19.5559 25.077 19.5602H24.9363V21.0949ZM14.8536 25.5544C14.9218 25.5714 15.0326 25.6098 15.1009 25.6396C15.1648 25.6738 15.2586 25.7633 15.3098 25.8358C15.3652 25.921 15.4121 26.0617 15.4206 26.1896C15.4334 26.3601 15.4163 26.4326 15.3353 26.5477C15.2842 26.6287 15.1904 26.7311 15.1307 26.7737C15.071 26.8206 14.9389 26.8675 14.8323 26.8803C14.6788 26.9016 14.6021 26.8845 14.4571 26.8035C14.3548 26.7481 14.2354 26.6415 14.1885 26.5733C14.1416 26.4966 14.1075 26.3644 14.1075 26.2408C14.1075 26.1299 14.1331 25.9892 14.1672 25.921C14.2013 25.8571 14.261 25.7718 14.3036 25.7292C14.3505 25.6908 14.4614 25.6269 14.5552 25.5927C14.6489 25.5586 14.7811 25.5416 14.8536 25.5544ZM26.3219 25.5629C26.3901 25.5714 26.4967 25.6098 26.5564 25.6439C26.6161 25.678 26.7056 25.7633 26.7568 25.84C26.8079 25.9168 26.8634 26.0447 26.8762 26.1257C26.8975 26.228 26.8804 26.3303 26.825 26.4667C26.7781 26.5776 26.68 26.7012 26.5948 26.7609C26.5138 26.8206 26.3731 26.876 26.2793 26.8845C26.1855 26.8931 26.0405 26.876 25.9595 26.8419C25.8785 26.8078 25.7592 26.714 25.6952 26.633C25.6313 26.552 25.5673 26.4113 25.5503 26.3175C25.5289 26.1896 25.5417 26.1001 25.6099 25.9551C25.6568 25.8485 25.7506 25.7249 25.8189 25.6823C25.8828 25.6354 25.9936 25.5842 26.0661 25.5672C26.1343 25.5544 26.2494 25.5501 26.3219 25.5629Z" fill="#FE524D"/>
</svg>
