<svg width="17" height="20" viewBox="0 0 17 20" fill="none" xmlns="http://www.w3.org/2000/svg">
<path d="M7.45436 0.0781536C7.2707 0.11723 7.00889 0.187569 6.86821 0.226645C6.72753 0.26963 6.43837 0.390768 6.22344 0.500183C6.00852 0.609598 5.68418 0.80889 5.50052 0.945659C5.31686 1.08243 5.0316 1.34424 4.85966 1.524C4.69163 1.70375 4.46108 1.99292 4.34776 2.16486C4.23443 2.33679 4.08985 2.58298 4.02342 2.71193C3.9609 2.84088 3.8632 3.07925 3.8085 3.23947C3.75379 3.39968 3.67954 3.67322 3.64437 3.84516C3.6092 4.0171 3.57013 4.36097 3.5584 4.60716C3.54277 4.91977 3.5584 5.19331 3.60139 5.50592C3.64047 5.76383 3.72644 6.13897 3.8124 6.38515C3.89056 6.61961 4.04296 6.96349 4.14846 7.14715C4.25397 7.33081 4.41809 7.58481 4.51579 7.71376C4.61739 7.84272 4.84794 8.09671 5.0316 8.27647C5.21526 8.45622 5.53178 8.71022 5.73498 8.84308C5.93818 8.97985 6.2547 9.1557 6.43837 9.23776C6.62203 9.31591 6.93855 9.42533 7.14175 9.47613C7.34495 9.53083 7.70445 9.58554 7.94282 9.60508C8.17728 9.62462 8.55633 9.62462 8.78297 9.60508C9.00962 9.58945 9.31442 9.54646 9.46682 9.5113C9.61531 9.47613 9.86149 9.40188 10.0139 9.35108C10.1624 9.29637 10.4281 9.17914 10.6 9.08927C10.772 8.99939 11.0455 8.82745 11.2057 8.70631C11.366 8.58517 11.6356 8.34681 11.7997 8.17878C11.9677 8.00684 12.1866 7.75675 12.2882 7.61607C12.3937 7.47539 12.55 7.22139 12.6399 7.04946C12.7297 6.87752 12.847 6.6118 12.9017 6.4633C12.9564 6.3109 13.0267 6.07644 13.058 5.93577C13.0931 5.79509 13.1361 5.47857 13.1557 5.23238C13.183 4.93149 13.183 4.64232 13.1557 4.35316C13.1322 4.11479 13.0814 3.78264 13.0384 3.6107C12.9955 3.43876 12.8899 3.13396 12.804 2.93467C12.7219 2.73928 12.5969 2.48138 12.5265 2.37196C12.4601 2.25864 12.3507 2.09452 12.2843 2.00855C12.2178 1.92258 12.085 1.75846 11.9873 1.64123C11.8896 1.5279 11.6786 1.3208 11.5184 1.18012C11.3581 1.04335 11.112 0.851874 10.9713 0.761998C10.8306 0.668213 10.6196 0.543168 10.5024 0.484552C10.3851 0.425937 10.1468 0.328245 9.97482 0.26963C9.80288 0.211015 9.55669 0.140677 9.42774 0.113323C9.29879 0.0898767 9.13076 0.0547075 9.05651 0.0312614C8.98227 0.011723 8.66574 0 8.35313 0C7.95455 0.00390768 7.68882 0.0273538 7.45436 0.0781536ZM4.07422 9.69105C3.90228 9.71059 3.62874 9.76139 3.46853 9.80828C3.30831 9.85126 3.05041 9.94505 2.90191 10.0154C2.74951 10.0857 2.51896 10.2147 2.38219 10.3046C2.24933 10.3944 2.04613 10.5625 1.93672 10.6758C1.82339 10.7891 1.64755 10.9845 1.54986 11.1134C1.44826 11.2424 1.27632 11.5042 1.1669 11.6996C1.05749 11.8911 0.893366 12.2349 0.807397 12.4616C0.721428 12.6882 0.588567 13.0985 0.518229 13.3799C0.447891 13.6573 0.354106 14.1145 0.307214 14.3959C0.26423 14.6733 0.209522 15.1501 0.186076 15.451C0.166538 15.7519 0.146999 16.1895 0.146999 16.4279C0.146999 16.6624 0.166538 16.9789 0.186076 17.1313C0.209522 17.2798 0.252507 17.5103 0.283768 17.6393C0.318937 17.7682 0.428352 18.0418 0.529952 18.245C0.662813 18.5107 0.791767 18.6943 0.987151 18.9054C1.13564 19.0656 1.35057 19.261 1.45607 19.3391C1.56549 19.4173 1.75696 19.5384 1.88592 19.6009C2.01487 19.6674 2.26105 19.765 2.43299 19.8198C2.60493 19.8706 2.86675 19.937 3.01914 19.9604C3.22234 19.9956 4.65646 20.0073 8.6462 19.9956L13.9997 19.9839C14.5155 19.8432 14.8203 19.726 15.0157 19.6361C15.2072 19.5423 15.4886 19.3704 15.641 19.2492C15.7894 19.1281 16.0083 18.9093 16.1255 18.7647C16.2388 18.6162 16.3912 18.3856 16.4616 18.245C16.5319 18.1043 16.6257 17.8659 16.6726 17.7174C16.7195 17.565 16.782 17.2446 16.8133 17.0062C16.8602 16.6545 16.8641 16.4435 16.8328 15.9707C16.8133 15.6424 16.7859 15.2595 16.7742 15.1188C16.7586 14.9781 16.7156 14.646 16.6726 14.3764C16.6296 14.1067 16.5397 13.6691 16.4733 13.3994C16.4069 13.1298 16.2935 12.7508 16.2154 12.5593C16.1411 12.3639 16.02 12.0825 15.9458 11.9341C15.8676 11.7817 15.7347 11.5472 15.641 11.4065C15.5511 11.2658 15.383 11.0392 15.2658 10.8985C15.1447 10.7578 14.9258 10.5507 14.7774 10.4413C14.6289 10.328 14.3749 10.1639 14.2147 10.0818C14.0544 9.99585 13.7731 9.88252 13.5894 9.83173C13.4058 9.77702 13.0775 9.71449 12.8548 9.69105C12.6359 9.6676 12.3976 9.65979 12.3311 9.67151C12.2608 9.68714 12.1162 9.74185 12.0068 9.79656C11.9013 9.84736 11.5652 10.0506 11.2644 10.2459C10.9635 10.4374 10.6548 10.625 10.5805 10.6641C10.5063 10.7031 10.2757 10.7969 10.0725 10.8751C9.86931 10.9532 9.53325 11.0509 9.33005 11.0939C9.07214 11.1525 8.81814 11.176 8.50944 11.176C8.25935 11.176 7.91156 11.1447 7.7279 11.1095C7.54424 11.0744 7.21209 10.9806 6.98544 10.9024C6.7588 10.8204 6.51261 10.7227 6.43837 10.6836C6.36412 10.6445 5.99289 10.4179 5.61775 10.1795C5.184 9.90597 4.86357 9.73013 4.73852 9.69886C4.63302 9.67151 4.50797 9.65197 4.46499 9.65197C4.422 9.65588 4.24616 9.67542 4.07422 9.69105Z" fill="#FE524D"/>
</svg>
