<svg width="18" height="22" viewBox="0 0 18 22" fill="none" xmlns="http://www.w3.org/2000/svg">
<path d="M7.95434 0.578154C7.77067 0.61723 7.50886 0.687569 7.36818 0.726645C7.22751 0.76963 6.93834 0.890768 6.72342 1.00018C6.50849 1.1096 6.18416 1.30889 6.0005 1.44566C5.81683 1.58243 5.53157 1.84424 5.35964 2.024C5.19161 2.20375 4.96105 2.49292 4.84773 2.66486C4.73441 2.83679 4.58982 3.08298 4.52339 3.21193C4.46087 3.34088 4.36318 3.57925 4.30847 3.73947C4.25376 3.89968 4.17952 4.17322 4.14435 4.34516C4.10918 4.5171 4.0701 4.86097 4.05838 5.10716C4.04275 5.41977 4.05838 5.69331 4.10136 6.00592C4.14044 6.26383 4.22641 6.63897 4.31238 6.88515C4.39053 7.11961 4.54293 7.46349 4.64844 7.64715C4.75395 7.83081 4.91807 8.08481 5.01576 8.21376C5.11736 8.34272 5.34791 8.59671 5.53157 8.77647C5.71523 8.95622 6.03176 9.21022 6.23496 9.34308C6.43816 9.47985 6.75468 9.6557 6.93834 9.73776C7.122 9.81591 7.43852 9.92533 7.64172 9.97613C7.84492 10.0308 8.20443 10.0855 8.4428 10.1051C8.67726 10.1246 9.0563 10.1246 9.28295 10.1051C9.50959 10.0894 9.81439 10.0465 9.96679 10.0113C10.1153 9.97613 10.3615 9.90188 10.5139 9.85108C10.6624 9.79637 10.9281 9.67914 11.1 9.58927C11.272 9.49939 11.5455 9.32745 11.7057 9.20631C11.8659 9.08518 12.1356 8.84681 12.2997 8.67878C12.4677 8.50684 12.6865 8.25675 12.7881 8.11607C12.8936 7.97539 13.05 7.7214 13.1398 7.54946C13.2297 7.37752 13.3469 7.1118 13.4016 6.9633C13.4564 6.8109 13.5267 6.57644 13.558 6.43577C13.5931 6.29509 13.6361 5.97857 13.6556 5.73239C13.683 5.43149 13.683 5.14233 13.6556 4.85316C13.6322 4.61479 13.5814 4.28264 13.5384 4.1107C13.4954 3.93876 13.3899 3.63396 13.304 3.43467C13.2219 3.23928 13.0968 2.98138 13.0265 2.87196C12.9601 2.75864 12.8507 2.59452 12.7842 2.50855C12.7178 2.42258 12.5849 2.25846 12.4872 2.14123C12.3896 2.0279 12.1785 1.8208 12.0183 1.68012C11.8581 1.54335 11.6119 1.35187 11.4712 1.262C11.3306 1.16821 11.1196 1.04317 11.0023 0.984552C10.8851 0.925937 10.6467 0.828245 10.4748 0.76963C10.3029 0.711015 10.0567 0.640677 9.92771 0.613323C9.79876 0.589877 9.63073 0.554708 9.55649 0.531261C9.48224 0.511723 9.16572 0.5 8.8531 0.5C8.45452 0.503908 8.1888 0.527354 7.95434 0.578154ZM4.57419 11.191C4.40225 11.2106 4.12872 11.2614 3.9685 11.3083C3.80829 11.3513 3.55038 11.445 3.40189 11.5154C3.24949 11.5857 3.01893 11.7147 2.88217 11.8046C2.7493 11.8944 2.54611 12.0625 2.43669 12.1758C2.32337 12.2891 2.14752 12.4845 2.04983 12.6134C1.94823 12.7424 1.77629 13.0042 1.66688 13.1996C1.55746 13.3911 1.39334 13.735 1.30737 13.9616C1.2214 14.1882 1.08854 14.5985 1.0182 14.8799C0.947864 15.1573 0.85408 15.6145 0.807188 15.8959C0.764203 16.1733 0.709496 16.6501 0.686049 16.951C0.666511 17.2519 0.646973 17.6895 0.646973 17.9279C0.646973 18.1624 0.666511 18.4789 0.686049 18.6313C0.709496 18.7798 0.75248 19.0103 0.783741 19.1393C0.818911 19.2682 0.928326 19.5418 1.02993 19.745C1.16279 20.0107 1.29174 20.1943 1.48712 20.4054C1.63562 20.5656 1.85054 20.761 1.95605 20.8391C2.06546 20.9173 2.25694 21.0384 2.38589 21.1009C2.51484 21.1674 2.76103 21.2651 2.93297 21.3198C3.1049 21.3706 3.36672 21.437 3.51912 21.4604C3.72232 21.4956 5.15644 21.5073 9.14618 21.4956L14.4997 21.4839C15.0155 21.3432 15.3203 21.226 15.5157 21.1361C15.7072 21.0423 15.9885 20.8704 16.1409 20.7492C16.2894 20.6281 16.5082 20.4093 16.6255 20.2647C16.7388 20.1162 16.8912 19.8856 16.9615 19.745C17.0319 19.6043 17.1257 19.3659 17.1726 19.2174C17.2194 19.065 17.282 18.7446 17.3132 18.5062C17.3601 18.1545 17.364 17.9435 17.3328 17.4707C17.3132 17.1424 17.2859 16.7595 17.2742 16.6188C17.2585 16.4781 17.2155 16.146 17.1726 15.8764C17.1296 15.6067 17.0397 15.1691 16.9733 14.8994C16.9068 14.6298 16.7935 14.2508 16.7154 14.0593C16.6411 13.8639 16.52 13.5826 16.4457 13.4341C16.3676 13.2817 16.2347 13.0472 16.1409 12.9065C16.0511 12.7658 15.883 12.5392 15.7658 12.3985C15.6447 12.2578 15.4258 12.0507 15.2773 11.9413C15.1288 11.828 14.8748 11.6639 14.7146 11.5818C14.5544 11.4958 14.2731 11.3825 14.0894 11.3317C13.9057 11.277 13.5775 11.2145 13.3548 11.191C13.1359 11.1676 12.8976 11.1598 12.8311 11.1715C12.7608 11.1871 12.6162 11.2418 12.5068 11.2966C12.4013 11.3474 12.0652 11.5506 11.7643 11.7459C11.4634 11.9374 11.1547 12.125 11.0805 12.1641C11.0062 12.2031 10.7757 12.2969 10.5725 12.3751C10.3693 12.4532 10.0332 12.5509 9.83002 12.5939C9.57212 12.6525 9.31812 12.676 9.00941 12.676C8.75932 12.676 8.41153 12.6447 8.22787 12.6095C8.04421 12.5744 7.71206 12.4806 7.48541 12.4024C7.25877 12.3204 7.01258 12.2227 6.93834 12.1836C6.86409 12.1445 6.49286 11.9179 6.11773 11.6795C5.68397 11.406 5.36354 11.2301 5.2385 11.1989C5.13299 11.1715 5.00794 11.152 4.96496 11.152C4.92198 11.1559 4.74613 11.1754 4.57419 11.191Z" fill="#C8C8C8"/>
</svg>
